<mxfile host="www.draw.io" modified="2019-12-11T23:05:24.104Z" agent="Mozilla/5.0 (Windows NT 10.0; Win64; x64) AppleWebKit/537.36 (KHTML, like Gecko) Chrome/78.0.3904.108 Safari/537.36" etag="8bdsN8OHsM7YlQ7U_rli" version="12.3.9" type="github" pages="4">
  <diagram name="Master" id="42789a77-a242-8287-6e28-9cd8cfd52e62">
    <mxGraphModel dx="1024" dy="534" grid="1" gridSize="10" guides="1" tooltips="1" connect="1" arrows="1" fold="1" page="1" pageScale="1" pageWidth="1100" pageHeight="700" background="#ffffff" math="0" shadow="0">
      <root>
        <mxCell id="0"/>
        <mxCell id="1" parent="0"/>
        <mxCell id="1ea317790d2ca983-12" style="edgeStyle=none;rounded=1;html=1;labelBackgroundColor=none;startArrow=none;startFill=0;startSize=5;endArrow=classicThin;endFill=1;endSize=5;jettySize=auto;orthogonalLoop=1;strokeColor=#000000;strokeWidth=1;fontFamily=Verdana;fontSize=12" parent="1" source="1ea317790d2ca983-1" target="1ea317790d2ca983-2" edge="1">
          <mxGeometry relative="1" as="geometry"/>
        </mxCell>
        <mxCell id="1ea317790d2ca983-1" value="Start&lt;br&gt;(ON)" style="ellipse;whiteSpace=wrap;html=1;rounded=0;shadow=1;comic=0;labelBackgroundColor=none;strokeWidth=1;fontFamily=Verdana;fontSize=12;align=center;perimeterSpacing=1;fillColor=#e1d5e7;strokeColor=#9673a6;" parent="1" vertex="1">
          <mxGeometry x="475" y="42.5" width="90" height="60" as="geometry"/>
        </mxCell>
        <mxCell id="1ea317790d2ca983-2" value="Configuring" style="ellipse;whiteSpace=wrap;html=1;rounded=0;shadow=1;comic=0;labelBackgroundColor=none;strokeWidth=1;fontFamily=Verdana;fontSize=12;align=center;fillColor=#ffe6cc;strokeColor=#d79b00;" parent="1" vertex="1">
          <mxGeometry x="472" y="152.5" width="93" height="50" as="geometry"/>
        </mxCell>
        <mxCell id="1ea317790d2ca983-3" value="&lt;span&gt;Message Validation&lt;/span&gt;" style="ellipse;whiteSpace=wrap;html=1;rounded=0;shadow=1;comic=0;labelBackgroundColor=none;strokeWidth=1;fontFamily=Verdana;fontSize=12;align=center;fillColor=#d5e8d4;strokeColor=#82b366;" parent="1" vertex="1">
          <mxGeometry x="548" y="492.5" width="75" height="50" as="geometry"/>
        </mxCell>
        <mxCell id="1ea317790d2ca983-4" value="Send Down&lt;br&gt;&lt;i style=&quot;font-size: 9px&quot;&gt;&quot;WindowDown&quot;&lt;/i&gt;" style="ellipse;whiteSpace=wrap;html=1;rounded=0;shadow=1;comic=0;labelBackgroundColor=none;strokeWidth=1;fontFamily=Verdana;fontSize=12;align=center;fillColor=#dae8fc;strokeColor=#6c8ebf;" parent="1" vertex="1">
          <mxGeometry x="672" y="335" width="75" height="50" as="geometry"/>
        </mxCell>
        <mxCell id="1ea317790d2ca983-5" value="Send Up&lt;br&gt;&lt;font style=&quot;font-size: 9px&quot;&gt;&lt;i&gt;&quot;WindowUp&quot;&lt;/i&gt;&lt;/font&gt;" style="ellipse;whiteSpace=wrap;html=1;rounded=0;shadow=1;comic=0;labelBackgroundColor=none;strokeWidth=1;fontFamily=Verdana;fontSize=12;align=center;fillColor=#dae8fc;strokeColor=#6c8ebf;" parent="1" vertex="1">
          <mxGeometry x="862" y="405" width="75" height="50" as="geometry"/>
        </mxCell>
        <mxCell id="1ea317790d2ca983-6" value="Read Buttons" style="ellipse;whiteSpace=wrap;html=1;rounded=0;shadow=1;comic=0;labelBackgroundColor=none;strokeWidth=1;fontFamily=Verdana;fontSize=12;align=center;fillColor=#fff2cc;strokeColor=#d6b656;" parent="1" vertex="1">
          <mxGeometry x="667" y="172.5" width="75" height="50" as="geometry"/>
        </mxCell>
        <mxCell id="1ea317790d2ca983-7" value="Error&lt;br&gt;LED == ON" style="ellipse;whiteSpace=wrap;html=1;rounded=0;shadow=1;comic=0;labelBackgroundColor=none;strokeWidth=1;fontFamily=Verdana;fontSize=12;align=center;fillColor=#f8cecc;strokeColor=#b85450;" parent="1" vertex="1">
          <mxGeometry x="382" y="282.5" width="100" height="50" as="geometry"/>
        </mxCell>
        <mxCell id="1ea317790d2ca983-8" value="Button Validation" style="ellipse;whiteSpace=wrap;html=1;rounded=0;shadow=1;comic=0;labelBackgroundColor=none;strokeWidth=1;fontFamily=Verdana;fontSize=12;align=center;fillColor=#fff2cc;strokeColor=#d6b656;" parent="1" vertex="1">
          <mxGeometry x="912" y="237.5" width="75" height="50" as="geometry"/>
        </mxCell>
        <mxCell id="Fw9vB_BqnEXakWkiRCQY-5" style="edgeStyle=orthogonalEdgeStyle;rounded=0;orthogonalLoop=1;jettySize=auto;html=1;entryX=1;entryY=0;entryDx=0;entryDy=0;strokeColor=#000000;fontColor=#B3B3B3;" parent="1" source="Fw9vB_BqnEXakWkiRCQY-2" target="1ea317790d2ca983-2" edge="1">
          <mxGeometry relative="1" as="geometry"/>
        </mxCell>
        <mxCell id="Fw9vB_BqnEXakWkiRCQY-2" value="3" style="text;html=1;strokeColor=#000000;fillColor=#ffffff;align=center;verticalAlign=middle;whiteSpace=wrap;rounded=0;fontFamily=Helvetica;fontSize=12;fontColor=#000000;perimeterSpacing=1;" parent="1" vertex="1">
          <mxGeometry x="583" y="112.5" width="20" height="20" as="geometry"/>
        </mxCell>
        <mxCell id="Fw9vB_BqnEXakWkiRCQY-7" value="" style="curved=1;endArrow=classic;html=1;strokeColor=#B3B3B3;exitX=1;exitY=1;exitDx=0;exitDy=0;entryX=1;entryY=0;entryDx=0;entryDy=0;" parent="1" source="1ea317790d2ca983-6" target="1ea317790d2ca983-6" edge="1">
          <mxGeometry width="50" height="50" relative="1" as="geometry">
            <mxPoint x="652" y="342.5" as="sourcePoint"/>
            <mxPoint x="702" y="292.5" as="targetPoint"/>
            <Array as="points">
              <mxPoint x="731" y="222.5"/>
              <mxPoint x="792" y="222.5"/>
              <mxPoint x="812" y="179.5"/>
              <mxPoint x="752" y="162.5"/>
            </Array>
          </mxGeometry>
        </mxCell>
        <mxCell id="Fw9vB_BqnEXakWkiRCQY-9" value="PB2 == 1&lt;br&gt;&lt;div style=&quot;&quot;&gt;&lt;span&gt;&amp;amp;&lt;/span&gt;&lt;/div&gt;PB1 == 1" style="text;html=1;fontSize=10;fillColor=#ffffff;align=center;" parent="1" vertex="1">
          <mxGeometry x="790" y="182.5" width="34" height="35" as="geometry"/>
        </mxCell>
        <mxCell id="Fw9vB_BqnEXakWkiRCQY-11" value="" style="curved=1;endArrow=classic;html=1;strokeColor=#B3B3B3;entryX=0;entryY=0;entryDx=0;entryDy=0;" parent="1" target="1ea317790d2ca983-6" edge="1">
          <mxGeometry width="50" height="50" relative="1" as="geometry">
            <mxPoint x="722" y="179.5" as="sourcePoint"/>
            <mxPoint x="568.5" y="252.5" as="targetPoint"/>
            <Array as="points">
              <mxPoint x="752" y="112.5"/>
              <mxPoint x="678" y="102.5"/>
              <mxPoint x="662" y="152.5"/>
            </Array>
          </mxGeometry>
        </mxCell>
        <mxCell id="Fw9vB_BqnEXakWkiRCQY-13" value="&lt;font style=&quot;font-size: 10px&quot;&gt;PB2 == 0&lt;br&gt;&lt;span style=&quot;&quot;&gt;&amp;amp;&lt;/span&gt;&lt;br&gt;PB1 == 0&lt;/font&gt;" style="text;html=1;resizable=0;points=[];autosize=1;align=center;verticalAlign=top;spacingTop=-4;" parent="1" vertex="1">
          <mxGeometry x="677" y="62.5" width="60" height="50" as="geometry"/>
        </mxCell>
        <mxCell id="Fw9vB_BqnEXakWkiRCQY-17" style="edgeStyle=orthogonalEdgeStyle;rounded=0;orthogonalLoop=1;jettySize=auto;html=1;entryX=0.667;entryY=1;entryDx=0;entryDy=0;entryPerimeter=0;strokeColor=#000000;fontSize=10;fontColor=#000000;" parent="1" source="Fw9vB_BqnEXakWkiRCQY-14" target="1ea317790d2ca983-6" edge="1">
          <mxGeometry relative="1" as="geometry"/>
        </mxCell>
        <mxCell id="Fw9vB_BqnEXakWkiRCQY-14" value="2" style="text;html=1;strokeColor=#000000;fillColor=#ffffff;align=center;verticalAlign=middle;whiteSpace=wrap;rounded=0;fontFamily=Helvetica;fontSize=12;fontColor=#000000;perimeterSpacing=1;" parent="1" vertex="1">
          <mxGeometry x="707" y="242.5" width="20" height="20" as="geometry"/>
        </mxCell>
        <mxCell id="Fw9vB_BqnEXakWkiRCQY-21" value="" style="curved=1;endArrow=classic;html=1;strokeColor=#B3B3B3;fontSize=10;fontColor=#B3B3B3;exitX=0;exitY=0;exitDx=0;exitDy=0;entryX=1;entryY=0;entryDx=0;entryDy=0;" parent="1" edge="1">
          <mxGeometry width="50" height="50" relative="1" as="geometry">
            <mxPoint x="918.9834957055045" y="242.32233047033628" as="sourcePoint"/>
            <mxPoint x="727.0165042944955" y="177.32233047033628" as="targetPoint"/>
            <Array as="points">
              <mxPoint x="908" y="210"/>
              <mxPoint x="868" y="130"/>
              <mxPoint x="778" y="130"/>
            </Array>
          </mxGeometry>
        </mxCell>
        <mxCell id="Fw9vB_BqnEXakWkiRCQY-22" value="PB2 == 1&lt;br style=&quot;font-size: 10px&quot;&gt;&amp;amp;&lt;br&gt;PB1== 1" style="text;html=1;fontSize=10;align=center;fillColor=#ffffff;" parent="1" vertex="1">
          <mxGeometry x="802" y="107.5" width="70" height="30" as="geometry"/>
        </mxCell>
        <mxCell id="Fw9vB_BqnEXakWkiRCQY-23" value="PB2 == 0&lt;br style=&quot;font-size: 10px&quot;&gt;&amp;amp;&lt;br&gt;PB1 == 0" style="text;html=1;fontSize=10;align=center;fillColor=#ffffff;" parent="1" vertex="1">
          <mxGeometry x="864.5" y="142.5" width="70" height="40" as="geometry"/>
        </mxCell>
        <mxCell id="Fw9vB_BqnEXakWkiRCQY-27" value="" style="curved=1;endArrow=classic;html=1;strokeColor=#B3B3B3;fontSize=10;fontColor=#B3B3B3;exitX=0.5;exitY=1;exitDx=0;exitDy=0;entryX=1;entryY=0.5;entryDx=0;entryDy=0;" parent="1" source="1ea317790d2ca983-8" target="1ea317790d2ca983-5" edge="1">
          <mxGeometry width="50" height="50" relative="1" as="geometry">
            <mxPoint x="937" y="402.5" as="sourcePoint"/>
            <mxPoint x="987" y="352.5" as="targetPoint"/>
            <Array as="points">
              <mxPoint x="992" y="322.5"/>
              <mxPoint x="972" y="417.5"/>
            </Array>
          </mxGeometry>
        </mxCell>
        <mxCell id="Fw9vB_BqnEXakWkiRCQY-28" value="" style="curved=1;endArrow=classic;html=1;strokeColor=#B3B3B3;fontSize=10;fontColor=#B3B3B3;exitX=1;exitY=0;exitDx=0;exitDy=0;entryX=0.5;entryY=0;entryDx=0;entryDy=0;" parent="1" source="1ea317790d2ca983-8" target="1ea317790d2ca983-8" edge="1">
          <mxGeometry width="50" height="50" relative="1" as="geometry">
            <mxPoint x="1002" y="242.5" as="sourcePoint"/>
            <mxPoint x="1052" y="192.5" as="targetPoint"/>
            <Array as="points">
              <mxPoint x="1072" y="252.5"/>
              <mxPoint x="1032" y="162.5"/>
              <mxPoint x="942" y="192.5"/>
            </Array>
          </mxGeometry>
        </mxCell>
        <mxCell id="Fw9vB_BqnEXakWkiRCQY-29" value="(PB2 == 1 | PB1 == 1)&lt;br&gt;&amp;amp;&lt;br&gt;t &amp;lt;= 50ms&amp;nbsp;" style="text;html=1;fontSize=10;align=center;fillColor=#ffffff;" parent="1" vertex="1">
          <mxGeometry x="990.5" y="177.5" width="70" height="30" as="geometry"/>
        </mxCell>
        <mxCell id="Fw9vB_BqnEXakWkiRCQY-31" value="" style="curved=1;endArrow=classic;html=1;strokeColor=#B3B3B3;fontSize=10;fontColor=#B3B3B3;exitX=0;exitY=0.5;exitDx=0;exitDy=0;entryX=1;entryY=0.5;entryDx=0;entryDy=0;" parent="1" source="1ea317790d2ca983-5" target="1ea317790d2ca983-3" edge="1">
          <mxGeometry width="50" height="50" relative="1" as="geometry">
            <mxPoint x="762" y="492.5" as="sourcePoint"/>
            <mxPoint x="812" y="442.5" as="targetPoint"/>
            <Array as="points">
              <mxPoint x="792" y="522.5"/>
            </Array>
          </mxGeometry>
        </mxCell>
        <mxCell id="Fw9vB_BqnEXakWkiRCQY-36" value="PB2 == 0&lt;br&gt;&amp;amp;&lt;br&gt;PB1 == 1&lt;br&gt;&amp;amp;&lt;br&gt;t &amp;gt; 50ms&amp;nbsp;" style="text;html=1;fontSize=10;align=center;fillColor=#ffffff;" parent="1" vertex="1">
          <mxGeometry x="971" y="327.5" width="70" height="65" as="geometry"/>
        </mxCell>
        <mxCell id="Fw9vB_BqnEXakWkiRCQY-40" value="" style="curved=1;endArrow=classic;html=1;strokeColor=#B3B3B3;fontSize=10;fontColor=#B3B3B3;exitX=1;exitY=1;exitDx=0;exitDy=0;entryX=0;entryY=1;entryDx=0;entryDy=0;" parent="1" source="1ea317790d2ca983-5" target="1ea317790d2ca983-5" edge="1">
          <mxGeometry width="50" height="50" relative="1" as="geometry">
            <mxPoint x="937" y="507.5" as="sourcePoint"/>
            <mxPoint x="987" y="457.5" as="targetPoint"/>
            <Array as="points">
              <mxPoint x="952" y="482.5"/>
              <mxPoint x="926" y="542.5"/>
              <mxPoint x="852" y="532.5"/>
              <mxPoint x="852" y="482.5"/>
              <mxPoint x="862" y="462.5"/>
            </Array>
          </mxGeometry>
        </mxCell>
        <mxCell id="Fw9vB_BqnEXakWkiRCQY-41" value="E == NOK&lt;br&gt;&amp;amp;&lt;br&gt;t &amp;lt;= 100ms&amp;nbsp;" style="text;html=1;fontSize=10;align=center;fillColor=#ffffff;" parent="1" vertex="1">
          <mxGeometry x="862" y="512.5" width="70" height="30" as="geometry"/>
        </mxCell>
        <mxCell id="Fw9vB_BqnEXakWkiRCQY-44" value="1" style="text;html=1;strokeColor=#000000;fillColor=#ffffff;align=center;verticalAlign=middle;whiteSpace=wrap;rounded=0;fontFamily=Helvetica;fontSize=12;fontColor=#000000;perimeterSpacing=1;" parent="1" vertex="1">
          <mxGeometry x="1040.5" y="532.5" width="20" height="20" as="geometry"/>
        </mxCell>
        <mxCell id="Fw9vB_BqnEXakWkiRCQY-45" value="" style="curved=1;endArrow=classic;html=1;strokeColor=#B3B3B3;fontSize=10;fontColor=#B3B3B3;exitX=0.989;exitY=0.713;exitDx=0;exitDy=0;exitPerimeter=0;entryX=0;entryY=0.5;entryDx=0;entryDy=0;" parent="1" source="1ea317790d2ca983-5" target="Fw9vB_BqnEXakWkiRCQY-44" edge="1">
          <mxGeometry width="50" height="50" relative="1" as="geometry">
            <mxPoint x="942" y="552.5" as="sourcePoint"/>
            <mxPoint x="992" y="502.5" as="targetPoint"/>
            <Array as="points">
              <mxPoint x="952" y="452.5"/>
              <mxPoint x="972" y="492.5"/>
            </Array>
          </mxGeometry>
        </mxCell>
        <mxCell id="Fw9vB_BqnEXakWkiRCQY-49" value="E == NOK&lt;br&gt;&amp;amp;&lt;br&gt;t &amp;gt; 100ms" style="text;html=1;fontSize=10;align=center;fillColor=#ffffff;" parent="1" vertex="1">
          <mxGeometry x="980.5" y="475" width="70" height="45" as="geometry"/>
        </mxCell>
        <mxCell id="Fw9vB_BqnEXakWkiRCQY-53" value="E == OK&lt;br&gt;&amp;amp;&lt;br&gt;t &amp;lt;= 100ms&amp;nbsp;" style="text;html=1;fontSize=10;align=center;fillColor=#ffffff;" parent="1" vertex="1">
          <mxGeometry x="727" y="492.5" width="70" height="44" as="geometry"/>
        </mxCell>
        <mxCell id="Fw9vB_BqnEXakWkiRCQY-55" value="" style="curved=1;endArrow=classic;html=1;strokeColor=#B3B3B3;fontSize=10;fontColor=#B3B3B3;exitX=1;exitY=1;exitDx=0;exitDy=0;entryX=0;entryY=1;entryDx=0;entryDy=0;" parent="1" source="1ea317790d2ca983-3" target="1ea317790d2ca983-3" edge="1">
          <mxGeometry width="50" height="50" relative="1" as="geometry">
            <mxPoint x="503" y="607.5" as="sourcePoint"/>
            <mxPoint x="553" y="557.5" as="targetPoint"/>
            <Array as="points">
              <mxPoint x="662" y="602.5"/>
              <mxPoint x="559" y="632.5"/>
              <mxPoint x="522" y="582.5"/>
            </Array>
          </mxGeometry>
        </mxCell>
        <mxCell id="Fw9vB_BqnEXakWkiRCQY-59" value="R == NULL | NOK&lt;br&gt;&amp;amp;&lt;br&gt;t &amp;lt;= 200ms&amp;nbsp;" style="text;html=1;fontSize=10;align=center;" parent="1" vertex="1">
          <mxGeometry x="548" y="620" width="70" height="35" as="geometry"/>
        </mxCell>
        <mxCell id="Fw9vB_BqnEXakWkiRCQY-60" value="" style="curved=1;endArrow=classic;html=1;strokeColor=#B3B3B3;fontSize=10;fontColor=#B3B3B3;exitX=0.691;exitY=0.994;exitDx=0;exitDy=0;entryX=1;entryY=0;entryDx=0;entryDy=0;exitPerimeter=0;" parent="1" source="1ea317790d2ca983-4" target="1ea317790d2ca983-4" edge="1">
          <mxGeometry width="50" height="50" relative="1" as="geometry">
            <mxPoint x="782" y="370" as="sourcePoint"/>
            <mxPoint x="808.77268432236" y="327.4947833276876" as="targetPoint"/>
            <Array as="points">
              <mxPoint x="799.5" y="395"/>
              <mxPoint x="802" y="384.5"/>
              <mxPoint x="822" y="372.5"/>
              <mxPoint x="800" y="342.5"/>
            </Array>
          </mxGeometry>
        </mxCell>
        <mxCell id="Fw9vB_BqnEXakWkiRCQY-61" value="" style="curved=1;endArrow=classic;html=1;strokeColor=#B3B3B3;fontSize=10;fontColor=#B3B3B3;exitX=0.327;exitY=0.97;exitDx=0;exitDy=0;entryX=1;entryY=0;entryDx=0;entryDy=0;exitPerimeter=0;" parent="1" source="1ea317790d2ca983-4" target="1ea317790d2ca983-3" edge="1">
          <mxGeometry width="50" height="50" relative="1" as="geometry">
            <mxPoint x="741.5250000000001" y="366" as="sourcePoint"/>
            <mxPoint x="641" y="337.5" as="targetPoint"/>
            <Array as="points">
              <mxPoint x="702" y="452.5"/>
            </Array>
          </mxGeometry>
        </mxCell>
        <mxCell id="Fw9vB_BqnEXakWkiRCQY-64" value="E == OK&lt;br&gt;&amp;amp;&lt;br&gt;t &amp;lt;= 100ms&amp;nbsp;" style="text;html=1;fontSize=10;align=center;fillColor=#ffffff;" parent="1" vertex="1">
          <mxGeometry x="637" y="415.5" width="70" height="48" as="geometry"/>
        </mxCell>
        <mxCell id="Fw9vB_BqnEXakWkiRCQY-68" value="" style="curved=1;endArrow=classic;html=1;strokeColor=#B3B3B3;fontSize=10;fontColor=#B3B3B3;exitX=0;exitY=1;exitDx=0;exitDy=0;entryX=0.5;entryY=0;entryDx=0;entryDy=0;" parent="1" source="1ea317790d2ca983-8" target="1ea317790d2ca983-4" edge="1">
          <mxGeometry width="50" height="50" relative="1" as="geometry">
            <mxPoint x="502" y="682.5" as="sourcePoint"/>
            <mxPoint x="552" y="632.5" as="targetPoint"/>
            <Array as="points">
              <mxPoint x="882" y="312.5"/>
            </Array>
          </mxGeometry>
        </mxCell>
        <mxCell id="Fw9vB_BqnEXakWkiRCQY-72" value="PB2 == 1&lt;br style=&quot;font-size: 10px;&quot;&gt;&amp;amp;&lt;br style=&quot;font-size: 10px;&quot;&gt;PB1 == 0&lt;br style=&quot;font-size: 10px;&quot;&gt;&amp;amp;&lt;br style=&quot;font-size: 10px;&quot;&gt;t &amp;gt; 50ms&amp;nbsp;" style="text;html=1;fontSize=10;align=center;fillColor=#ffffff;" parent="1" vertex="1">
          <mxGeometry x="832" y="293.5" width="70" height="60" as="geometry"/>
        </mxCell>
        <mxCell id="Fw9vB_BqnEXakWkiRCQY-73" value="E == NOK&lt;br&gt;&amp;amp;&lt;br&gt;t &amp;lt;= 100ms&amp;nbsp;" style="text;html=1;fontSize=10;align=center;fillColor=#ffffff;" parent="1" vertex="1">
          <mxGeometry x="762" y="370.5" width="70" height="49" as="geometry"/>
        </mxCell>
        <mxCell id="Fw9vB_BqnEXakWkiRCQY-76" value="Wait" style="ellipse;whiteSpace=wrap;html=1;rounded=0;shadow=1;comic=0;labelBackgroundColor=none;strokeWidth=1;fontFamily=Verdana;fontSize=12;align=center;fillColor=#ffe6cc;strokeColor=#d79b00;" parent="1" vertex="1">
          <mxGeometry x="362" y="482.5" width="75" height="50" as="geometry"/>
        </mxCell>
        <mxCell id="Fw9vB_BqnEXakWkiRCQY-80" value="R == OK&lt;br&gt;&amp;amp;&lt;br&gt;t &amp;lt;= 200ms&amp;nbsp;" style="text;html=1;fontSize=10;align=center;fillColor=#ffffff;" parent="1" vertex="1">
          <mxGeometry x="457.5" y="528.5" width="70" height="30" as="geometry"/>
        </mxCell>
        <mxCell id="Fw9vB_BqnEXakWkiRCQY-81" value="" style="curved=1;endArrow=classic;html=1;strokeColor=#B3B3B3;fontSize=10;fontColor=#B3B3B3;exitX=0;exitY=0.5;exitDx=0;exitDy=0;entryX=1;entryY=0.5;entryDx=0;entryDy=0;" parent="1" source="1ea317790d2ca983-3" target="Fw9vB_BqnEXakWkiRCQY-76" edge="1">
          <mxGeometry width="50" height="50" relative="1" as="geometry">
            <mxPoint x="392" y="682.5" as="sourcePoint"/>
            <mxPoint x="442" y="632.5" as="targetPoint"/>
            <Array as="points">
              <mxPoint x="512" y="532.5"/>
              <mxPoint x="462" y="532.5"/>
            </Array>
          </mxGeometry>
        </mxCell>
        <mxCell id="Fw9vB_BqnEXakWkiRCQY-84" value="" style="curved=1;endArrow=classic;html=1;strokeColor=#B3B3B3;fontSize=10;fontColor=#B3B3B3;exitX=1;exitY=1;exitDx=0;exitDy=0;entryX=0;entryY=1;entryDx=0;entryDy=0;" parent="1" source="Fw9vB_BqnEXakWkiRCQY-76" target="Fw9vB_BqnEXakWkiRCQY-76" edge="1">
          <mxGeometry width="50" height="50" relative="1" as="geometry">
            <mxPoint x="232" y="682.5" as="sourcePoint"/>
            <mxPoint x="282" y="632.5" as="targetPoint"/>
            <Array as="points">
              <mxPoint x="472" y="612.5"/>
              <mxPoint x="312" y="612.5"/>
            </Array>
          </mxGeometry>
        </mxCell>
        <mxCell id="Fw9vB_BqnEXakWkiRCQY-85" value="t &amp;lt;= 450ms&amp;nbsp;" style="text;html=1;fontSize=10;align=center;" parent="1" vertex="1">
          <mxGeometry x="357" y="590" width="70" height="30" as="geometry"/>
        </mxCell>
        <mxCell id="Fw9vB_BqnEXakWkiRCQY-88" value="" style="curved=1;endArrow=classic;html=1;strokeColor=#B3B3B3;fontSize=10;fontColor=#B3B3B3;exitX=0;exitY=0;exitDx=0;exitDy=0;entryX=1;entryY=1;entryDx=0;entryDy=0;" parent="1" source="1ea317790d2ca983-3" target="1ea317790d2ca983-7" edge="1">
          <mxGeometry width="50" height="50" relative="1" as="geometry">
            <mxPoint x="342" y="712.5" as="sourcePoint"/>
            <mxPoint x="392" y="662.5" as="targetPoint"/>
            <Array as="points">
              <mxPoint x="542" y="442.5"/>
              <mxPoint x="522" y="392.5"/>
            </Array>
          </mxGeometry>
        </mxCell>
        <mxCell id="Fw9vB_BqnEXakWkiRCQY-89" value="R == NULL | NOK&lt;br&gt;&amp;amp;&lt;br&gt;t &amp;lt;= 200ms&amp;nbsp;" style="text;html=1;fontSize=10;align=center;fillColor=#ffffff;" parent="1" vertex="1">
          <mxGeometry x="472" y="395" width="70" height="20" as="geometry"/>
        </mxCell>
        <mxCell id="Fw9vB_BqnEXakWkiRCQY-92" value="" style="curved=1;endArrow=classic;html=1;strokeColor=#B3B3B3;fontSize=10;fontColor=#B3B3B3;exitX=0;exitY=0.5;exitDx=0;exitDy=0;entryX=1;entryY=0.5;entryDx=0;entryDy=0;" parent="1" source="1ea317790d2ca983-4" target="1ea317790d2ca983-7" edge="1">
          <mxGeometry width="50" height="50" relative="1" as="geometry">
            <mxPoint x="342" y="712.5" as="sourcePoint"/>
            <mxPoint x="392" y="662.5" as="targetPoint"/>
            <Array as="points">
              <mxPoint x="632" y="307.5"/>
              <mxPoint x="562" y="292.5"/>
            </Array>
          </mxGeometry>
        </mxCell>
        <mxCell id="Fw9vB_BqnEXakWkiRCQY-93" value="E == NOK&lt;br&gt;&amp;amp;&lt;br&gt;t &amp;gt; 200ms&amp;nbsp;" style="text;html=1;fontSize=10;align=center;" parent="1" vertex="1">
          <mxGeometry x="558" y="302.5" width="70" height="30" as="geometry"/>
        </mxCell>
        <mxCell id="Fw9vB_BqnEXakWkiRCQY-94" value="2" style="text;html=1;strokeColor=#000000;fillColor=#ffffff;align=center;verticalAlign=middle;whiteSpace=wrap;rounded=0;fontFamily=Helvetica;fontSize=12;fontColor=#000000;perimeterSpacing=1;" parent="1" vertex="1">
          <mxGeometry x="302" y="410" width="20" height="20" as="geometry"/>
        </mxCell>
        <mxCell id="Fw9vB_BqnEXakWkiRCQY-95" value="" style="curved=1;endArrow=classic;html=1;strokeColor=#B3B3B3;fontSize=10;fontColor=#B3B3B3;exitX=0;exitY=0.5;exitDx=0;exitDy=0;entryX=0.25;entryY=1;entryDx=0;entryDy=0;" parent="1" source="Fw9vB_BqnEXakWkiRCQY-76" target="Fw9vB_BqnEXakWkiRCQY-94" edge="1">
          <mxGeometry width="50" height="50" relative="1" as="geometry">
            <mxPoint x="322" y="712.5" as="sourcePoint"/>
            <mxPoint x="372" y="662.5" as="targetPoint"/>
            <Array as="points">
              <mxPoint x="332" y="482.5"/>
            </Array>
          </mxGeometry>
        </mxCell>
        <mxCell id="Fw9vB_BqnEXakWkiRCQY-97" value="t &amp;gt; 450ms&amp;nbsp;" style="text;html=1;fontSize=10;align=center;fillColor=#ffffff;" parent="1" vertex="1">
          <mxGeometry x="287" y="467.5" width="70" height="30" as="geometry"/>
        </mxCell>
        <mxCell id="Fw9vB_BqnEXakWkiRCQY-101" value="3" style="text;html=1;strokeColor=#000000;fillColor=#ffffff;align=center;verticalAlign=middle;whiteSpace=wrap;rounded=0;fontFamily=Helvetica;fontSize=12;fontColor=#000000;perimeterSpacing=1;" parent="1" vertex="1">
          <mxGeometry x="277" y="282.5" width="20" height="20" as="geometry"/>
        </mxCell>
        <mxCell id="Fw9vB_BqnEXakWkiRCQY-103" style="edgeStyle=orthogonalEdgeStyle;rounded=0;orthogonalLoop=1;jettySize=auto;html=1;entryX=0;entryY=0;entryDx=0;entryDy=0;strokeColor=#000000;fontSize=10;fontColor=#000000;" parent="1" source="Fw9vB_BqnEXakWkiRCQY-102" target="1ea317790d2ca983-7" edge="1">
          <mxGeometry relative="1" as="geometry"/>
        </mxCell>
        <mxCell id="Fw9vB_BqnEXakWkiRCQY-102" value="1" style="text;html=1;strokeColor=#000000;fillColor=#ffffff;align=center;verticalAlign=middle;whiteSpace=wrap;rounded=0;fontFamily=Helvetica;fontSize=12;fontColor=#000000;perimeterSpacing=1;" parent="1" vertex="1">
          <mxGeometry x="332" y="242.5" width="20" height="20" as="geometry"/>
        </mxCell>
        <mxCell id="Fw9vB_BqnEXakWkiRCQY-105" value="" style="curved=1;endArrow=classic;html=1;strokeColor=#B3B3B3;fontSize=10;fontColor=#000000;exitX=0;exitY=1;exitDx=0;exitDy=0;entryX=0.5;entryY=0;entryDx=0;entryDy=0;" parent="1" source="1ea317790d2ca983-2" target="1ea317790d2ca983-7" edge="1">
          <mxGeometry width="50" height="50" relative="1" as="geometry">
            <mxPoint x="292" y="712.5" as="sourcePoint"/>
            <mxPoint x="342" y="662.5" as="targetPoint"/>
            <Array as="points">
              <mxPoint x="485" y="232.5"/>
              <mxPoint x="472" y="262.5"/>
            </Array>
          </mxGeometry>
        </mxCell>
        <mxCell id="Fw9vB_BqnEXakWkiRCQY-106" value="t &amp;lt;= 2s&amp;nbsp;" style="text;html=1;fontSize=10;align=center;" parent="1" vertex="1">
          <mxGeometry x="377" y="353.5" width="70" height="20" as="geometry"/>
        </mxCell>
        <mxCell id="Fw9vB_BqnEXakWkiRCQY-107" value="" style="curved=1;endArrow=classic;html=1;strokeColor=#B3B3B3;fontSize=10;fontColor=#000000;exitX=0;exitY=1;exitDx=0;exitDy=0;entryX=0.5;entryY=1;entryDx=0;entryDy=0;" parent="1" source="1ea317790d2ca983-7" target="1ea317790d2ca983-7" edge="1">
          <mxGeometry width="50" height="50" relative="1" as="geometry">
            <mxPoint x="292" y="712.5" as="sourcePoint"/>
            <mxPoint x="342" y="662.5" as="targetPoint"/>
            <Array as="points">
              <mxPoint x="362" y="382.5"/>
              <mxPoint x="452" y="372.5"/>
            </Array>
          </mxGeometry>
        </mxCell>
        <mxCell id="Fw9vB_BqnEXakWkiRCQY-109" value="" style="curved=1;endArrow=classic;html=1;strokeColor=#B3B3B3;fontSize=10;fontColor=#000000;exitX=0;exitY=0.5;exitDx=0;exitDy=0;entryX=0.5;entryY=1;entryDx=0;entryDy=0;" parent="1" source="1ea317790d2ca983-7" target="Fw9vB_BqnEXakWkiRCQY-101" edge="1">
          <mxGeometry width="50" height="50" relative="1" as="geometry">
            <mxPoint x="292" y="712.5" as="sourcePoint"/>
            <mxPoint x="342" y="662.5" as="targetPoint"/>
            <Array as="points">
              <mxPoint x="352" y="352.5"/>
            </Array>
          </mxGeometry>
        </mxCell>
        <mxCell id="Fw9vB_BqnEXakWkiRCQY-110" value="t = 1s&amp;nbsp;" style="text;html=1;fontSize=10;align=center;" parent="1" vertex="1">
          <mxGeometry x="307" y="307.5" width="70" height="20" as="geometry"/>
        </mxCell>
        <mxCell id="Fw9vB_BqnEXakWkiRCQY-123" value="" style="curved=1;endArrow=classic;html=1;strokeColor=#B3B3B3;fontSize=10;fontColor=#000000;entryX=0;entryY=0.5;entryDx=0;entryDy=0;exitX=0.5;exitY=1;exitDx=0;exitDy=0;" parent="1" source="1ea317790d2ca983-6" target="1ea317790d2ca983-8" edge="1">
          <mxGeometry width="50" height="50" relative="1" as="geometry">
            <mxPoint x="282" y="692.5" as="sourcePoint"/>
            <mxPoint x="332" y="642.5" as="targetPoint"/>
            <Array as="points">
              <mxPoint x="672" y="312.5"/>
              <mxPoint x="832" y="252.5"/>
            </Array>
          </mxGeometry>
        </mxCell>
        <mxCell id="Fw9vB_BqnEXakWkiRCQY-124" value="PB1 == 1 | PB2 == 1" style="text;html=1;fontSize=10;fillColor=#ffffff;align=center;" parent="1" vertex="1">
          <mxGeometry x="772" y="255" width="70" height="15" as="geometry"/>
        </mxCell>
        <mxCell id="Fw9vB_BqnEXakWkiRCQY-127" value="" style="curved=1;endArrow=classic;html=1;strokeColor=#B3B3B3;fontSize=10;fontColor=#000000;entryX=0;entryY=0.5;entryDx=0;entryDy=0;exitX=1;exitY=0.5;exitDx=0;exitDy=0;" parent="1" source="1ea317790d2ca983-2" target="1ea317790d2ca983-6" edge="1">
          <mxGeometry width="50" height="50" relative="1" as="geometry">
            <mxPoint x="585.5" y="260" as="sourcePoint"/>
            <mxPoint x="635.5" y="210" as="targetPoint"/>
            <Array as="points">
              <mxPoint x="582" y="197.5"/>
              <mxPoint x="616" y="210.5"/>
            </Array>
          </mxGeometry>
        </mxCell>
        <mxCell id="Fw9vB_BqnEXakWkiRCQY-128" value="Config == ON" style="text;html=1;fontSize=10;align=center;" parent="1" vertex="1">
          <mxGeometry x="581" y="177.5" width="70" height="30" as="geometry"/>
        </mxCell>
        <mxCell id="Fw9vB_BqnEXakWkiRCQY-129" value="Config == NOK" style="text;html=1;fontSize=10;align=center;fillColor=#ffffff;" parent="1" vertex="1">
          <mxGeometry x="457.5" y="232.5" width="70" height="30" as="geometry"/>
        </mxCell>
        <mxCell id="FIUoEsZyykuE2RsE9A6U-21" value="Nomenclature" style="swimlane;fontStyle=3;childLayout=stackLayout;horizontal=1;startSize=26;fillColor=#e0e0e0;horizontalStack=0;resizeParent=1;resizeParentMax=0;resizeLast=0;collapsible=1;marginBottom=0;swimlaneFillColor=#ffffff;align=center;fontSize=14;" parent="1" vertex="1">
          <mxGeometry x="10" y="21.5" width="243" height="296" as="geometry"/>
        </mxCell>
        <mxCell id="FIUoEsZyykuE2RsE9A6U-30" value="Push Button 1" style="shape=partialRectangle;top=0;left=0;right=0;bottom=1;align=left;verticalAlign=middle;fillColor=none;spacingLeft=60;spacingRight=4;overflow=hidden;rotatable=0;points=[[0,0.5],[1,0.5]];portConstraint=eastwest;dropTarget=0;fontStyle=0;fontSize=12;" parent="FIUoEsZyykuE2RsE9A6U-21" vertex="1">
          <mxGeometry y="26" width="243" height="30" as="geometry"/>
        </mxCell>
        <mxCell id="FIUoEsZyykuE2RsE9A6U-31" value="PB1" style="shape=partialRectangle;fontStyle=1;top=0;left=0;bottom=0;fillColor=none;align=left;verticalAlign=middle;spacingLeft=4;spacingRight=4;overflow=hidden;rotatable=0;points=[];portConstraint=eastwest;part=1;fontSize=12;" parent="FIUoEsZyykuE2RsE9A6U-30" vertex="1" connectable="0">
          <mxGeometry width="56" height="30" as="geometry"/>
        </mxCell>
        <mxCell id="FIUoEsZyykuE2RsE9A6U-32" value="Push Button 2" style="shape=partialRectangle;top=0;left=0;right=0;bottom=1;align=left;verticalAlign=middle;fillColor=none;spacingLeft=60;spacingRight=4;overflow=hidden;rotatable=0;points=[[0,0.5],[1,0.5]];portConstraint=eastwest;dropTarget=0;fontStyle=0;fontSize=12;" parent="FIUoEsZyykuE2RsE9A6U-21" vertex="1">
          <mxGeometry y="56" width="243" height="30" as="geometry"/>
        </mxCell>
        <mxCell id="FIUoEsZyykuE2RsE9A6U-33" value="PB2" style="shape=partialRectangle;fontStyle=1;top=0;left=0;bottom=0;fillColor=none;align=left;verticalAlign=middle;spacingLeft=4;spacingRight=4;overflow=hidden;rotatable=0;points=[];portConstraint=eastwest;part=1;fontSize=12;" parent="FIUoEsZyykuE2RsE9A6U-32" vertex="1" connectable="0">
          <mxGeometry width="56" height="30" as="geometry"/>
        </mxCell>
        <mxCell id="FIUoEsZyykuE2RsE9A6U-34" value="Time (s = seconds)" style="shape=partialRectangle;top=0;left=0;right=0;bottom=1;align=left;verticalAlign=middle;fillColor=none;spacingLeft=60;spacingRight=4;overflow=hidden;rotatable=0;points=[[0,0.5],[1,0.5]];portConstraint=eastwest;dropTarget=0;fontStyle=0;fontSize=12;" parent="FIUoEsZyykuE2RsE9A6U-21" vertex="1">
          <mxGeometry y="86" width="243" height="30" as="geometry"/>
        </mxCell>
        <mxCell id="FIUoEsZyykuE2RsE9A6U-35" value="t" style="shape=partialRectangle;fontStyle=1;top=0;left=0;bottom=0;fillColor=none;align=left;verticalAlign=middle;spacingLeft=4;spacingRight=4;overflow=hidden;rotatable=0;points=[];portConstraint=eastwest;part=1;fontSize=12;" parent="FIUoEsZyykuE2RsE9A6U-34" vertex="1" connectable="0">
          <mxGeometry width="56" height="30" as="geometry"/>
        </mxCell>
        <mxCell id="FIUoEsZyykuE2RsE9A6U-36" value="Receive message" style="shape=partialRectangle;top=0;left=0;right=0;bottom=1;align=left;verticalAlign=middle;fillColor=none;spacingLeft=60;spacingRight=4;overflow=hidden;rotatable=0;points=[[0,0.5],[1,0.5]];portConstraint=eastwest;dropTarget=0;fontStyle=0;fontSize=12;" parent="FIUoEsZyykuE2RsE9A6U-21" vertex="1">
          <mxGeometry y="116" width="243" height="30" as="geometry"/>
        </mxCell>
        <mxCell id="FIUoEsZyykuE2RsE9A6U-37" value="R" style="shape=partialRectangle;fontStyle=1;top=0;left=0;bottom=0;fillColor=none;align=left;verticalAlign=middle;spacingLeft=4;spacingRight=4;overflow=hidden;rotatable=0;points=[];portConstraint=eastwest;part=1;fontSize=12;" parent="FIUoEsZyykuE2RsE9A6U-36" vertex="1" connectable="0">
          <mxGeometry width="56" height="30" as="geometry"/>
        </mxCell>
        <mxCell id="FIUoEsZyykuE2RsE9A6U-38" value="Transmission Status of the SPI " style="shape=partialRectangle;top=0;left=0;right=0;bottom=1;align=left;verticalAlign=middle;fillColor=none;spacingLeft=60;spacingRight=4;overflow=hidden;rotatable=0;points=[[0,0.5],[1,0.5]];portConstraint=eastwest;dropTarget=0;fontStyle=0;fontSize=12;" parent="FIUoEsZyykuE2RsE9A6U-21" vertex="1">
          <mxGeometry y="146" width="243" height="30" as="geometry"/>
        </mxCell>
        <mxCell id="FIUoEsZyykuE2RsE9A6U-39" value="E" style="shape=partialRectangle;fontStyle=1;top=0;left=0;bottom=0;fillColor=none;align=left;verticalAlign=middle;spacingLeft=4;spacingRight=4;overflow=hidden;rotatable=0;points=[];portConstraint=eastwest;part=1;fontSize=12;" parent="FIUoEsZyykuE2RsE9A6U-38" vertex="1" connectable="0">
          <mxGeometry width="56" height="30" as="geometry"/>
        </mxCell>
        <mxCell id="FIUoEsZyykuE2RsE9A6U-40" value="No correct" style="shape=partialRectangle;top=0;left=0;right=0;bottom=1;align=left;verticalAlign=middle;fillColor=none;spacingLeft=60;spacingRight=4;overflow=hidden;rotatable=0;points=[[0,0.5],[1,0.5]];portConstraint=eastwest;dropTarget=0;fontStyle=0;fontSize=12;" parent="FIUoEsZyykuE2RsE9A6U-21" vertex="1">
          <mxGeometry y="176" width="243" height="30" as="geometry"/>
        </mxCell>
        <mxCell id="FIUoEsZyykuE2RsE9A6U-41" value="NOK" style="shape=partialRectangle;fontStyle=1;top=0;left=0;bottom=0;fillColor=none;align=left;verticalAlign=middle;spacingLeft=4;spacingRight=4;overflow=hidden;rotatable=0;points=[];portConstraint=eastwest;part=1;fontSize=12;" parent="FIUoEsZyykuE2RsE9A6U-40" vertex="1" connectable="0">
          <mxGeometry width="56" height="30" as="geometry"/>
        </mxCell>
        <mxCell id="FIUoEsZyykuE2RsE9A6U-42" value="Correct" style="shape=partialRectangle;top=0;left=0;right=0;bottom=1;align=left;verticalAlign=middle;fillColor=none;spacingLeft=60;spacingRight=4;overflow=hidden;rotatable=0;points=[[0,0.5],[1,0.5]];portConstraint=eastwest;dropTarget=0;fontStyle=0;fontSize=12;" parent="FIUoEsZyykuE2RsE9A6U-21" vertex="1">
          <mxGeometry y="206" width="243" height="30" as="geometry"/>
        </mxCell>
        <mxCell id="FIUoEsZyykuE2RsE9A6U-43" value="OK" style="shape=partialRectangle;fontStyle=1;top=0;left=0;bottom=0;fillColor=none;align=left;verticalAlign=middle;spacingLeft=4;spacingRight=4;overflow=hidden;rotatable=0;points=[];portConstraint=eastwest;part=1;fontSize=12;" parent="FIUoEsZyykuE2RsE9A6U-42" vertex="1" connectable="0">
          <mxGeometry width="56" height="30" as="geometry"/>
        </mxCell>
        <mxCell id="FIUoEsZyykuE2RsE9A6U-44" value="No answer" style="shape=partialRectangle;top=0;left=0;right=0;bottom=1;align=left;verticalAlign=middle;fillColor=none;spacingLeft=60;spacingRight=4;overflow=hidden;rotatable=0;points=[[0,0.5],[1,0.5]];portConstraint=eastwest;dropTarget=0;fontStyle=0;fontSize=12;" parent="FIUoEsZyykuE2RsE9A6U-21" vertex="1">
          <mxGeometry y="236" width="243" height="30" as="geometry"/>
        </mxCell>
        <mxCell id="FIUoEsZyykuE2RsE9A6U-45" value="NULL" style="shape=partialRectangle;fontStyle=1;top=0;left=0;bottom=0;fillColor=none;align=left;verticalAlign=middle;spacingLeft=4;spacingRight=4;overflow=hidden;rotatable=0;points=[];portConstraint=eastwest;part=1;fontSize=12;" parent="FIUoEsZyykuE2RsE9A6U-44" vertex="1" connectable="0">
          <mxGeometry width="56" height="30" as="geometry"/>
        </mxCell>
        <mxCell id="jI6Q4tMNnl2MhRJMbzih-1" value="Configuration" style="shape=partialRectangle;top=0;left=0;right=0;bottom=1;align=left;verticalAlign=middle;fillColor=none;spacingLeft=60;spacingRight=4;overflow=hidden;rotatable=0;points=[[0,0.5],[1,0.5]];portConstraint=eastwest;dropTarget=0;fontStyle=0;fontSize=12;" parent="FIUoEsZyykuE2RsE9A6U-21" vertex="1">
          <mxGeometry y="266" width="243" height="30" as="geometry"/>
        </mxCell>
        <mxCell id="jI6Q4tMNnl2MhRJMbzih-2" value="config" style="shape=partialRectangle;fontStyle=1;top=0;left=0;bottom=0;fillColor=none;align=left;verticalAlign=middle;spacingLeft=4;spacingRight=4;overflow=hidden;rotatable=0;points=[];portConstraint=eastwest;part=1;fontSize=12;" parent="jI6Q4tMNnl2MhRJMbzih-1" vertex="1" connectable="0">
          <mxGeometry width="56" height="30" as="geometry"/>
        </mxCell>
      </root>
    </mxGraphModel>
  </diagram>
  <diagram id="ryzd1tDF9GOLmpDqaa5T" name="Slave">
    <mxGraphModel dx="1024" dy="534" grid="1" gridSize="10" guides="1" tooltips="1" connect="1" arrows="1" fold="1" page="1" pageScale="1" pageWidth="850" pageHeight="650" background="#ffffff" math="0" shadow="0">
      <root>
        <mxCell id="ZEHT2UMX6JQqBzf9jMgQ-0"/>
        <mxCell id="ZEHT2UMX6JQqBzf9jMgQ-1" parent="ZEHT2UMX6JQqBzf9jMgQ-0"/>
        <mxCell id="i5ZoypDGlgfRBe6BiRU7-0" style="edgeStyle=none;rounded=1;html=1;labelBackgroundColor=none;startArrow=none;startFill=0;startSize=5;endArrow=classicThin;endFill=1;endSize=5;jettySize=auto;orthogonalLoop=1;strokeColor=#B3B3B3;strokeWidth=1;fontFamily=Verdana;fontSize=12" parent="ZEHT2UMX6JQqBzf9jMgQ-1" source="i5ZoypDGlgfRBe6BiRU7-1" target="i5ZoypDGlgfRBe6BiRU7-2" edge="1">
          <mxGeometry relative="1" as="geometry"/>
        </mxCell>
        <mxCell id="i5ZoypDGlgfRBe6BiRU7-1" value="Start" style="ellipse;whiteSpace=wrap;html=1;rounded=0;shadow=1;comic=0;labelBackgroundColor=none;strokeWidth=1;fontFamily=Verdana;fontSize=12;align=center;fillColor=#e1d5e7;strokeColor=#9673a6;" parent="ZEHT2UMX6JQqBzf9jMgQ-1" vertex="1">
          <mxGeometry x="400" y="50" width="90" height="60" as="geometry"/>
        </mxCell>
        <mxCell id="i5ZoypDGlgfRBe6BiRU7-2" value="&lt;span&gt;Configuring&lt;/span&gt;" style="ellipse;whiteSpace=wrap;html=1;rounded=0;shadow=1;comic=0;labelBackgroundColor=none;strokeWidth=1;fontFamily=Verdana;fontSize=12;align=center;fillColor=#ffe6cc;strokeColor=#d79b00;" parent="ZEHT2UMX6JQqBzf9jMgQ-1" vertex="1">
          <mxGeometry x="407.5" y="160" width="75" height="50" as="geometry"/>
        </mxCell>
        <mxCell id="i5ZoypDGlgfRBe6BiRU7-3" value="&lt;span&gt;Down&lt;/span&gt;" style="ellipse;whiteSpace=wrap;html=1;rounded=0;shadow=1;comic=0;labelBackgroundColor=none;strokeWidth=1;fontFamily=Verdana;fontSize=12;align=center;fillColor=#dae8fc;strokeColor=#6c8ebf;" parent="ZEHT2UMX6JQqBzf9jMgQ-1" vertex="1">
          <mxGeometry x="632.5" y="420" width="75" height="50" as="geometry"/>
        </mxCell>
        <mxCell id="i5ZoypDGlgfRBe6BiRU7-4" value="Read Message" style="ellipse;whiteSpace=wrap;html=1;rounded=0;shadow=1;comic=0;labelBackgroundColor=none;strokeWidth=1;fontFamily=Verdana;fontSize=12;align=center;fillColor=#fff2cc;strokeColor=#d6b656;" parent="ZEHT2UMX6JQqBzf9jMgQ-1" vertex="1">
          <mxGeometry x="500" y="290" width="75" height="50" as="geometry"/>
        </mxCell>
        <mxCell id="i5ZoypDGlgfRBe6BiRU7-5" value="&lt;span&gt;Up&lt;/span&gt;" style="ellipse;whiteSpace=wrap;html=1;rounded=0;shadow=1;comic=0;labelBackgroundColor=none;strokeWidth=1;fontFamily=Verdana;fontSize=12;align=center;fillColor=#dae8fc;strokeColor=#6c8ebf;" parent="ZEHT2UMX6JQqBzf9jMgQ-1" vertex="1">
          <mxGeometry x="390" y="415" width="75" height="50" as="geometry"/>
        </mxCell>
        <mxCell id="i5ZoypDGlgfRBe6BiRU7-6" value="Send Confirm" style="ellipse;whiteSpace=wrap;html=1;rounded=0;shadow=1;comic=0;labelBackgroundColor=none;strokeWidth=1;fontFamily=Verdana;fontSize=12;align=center;fillColor=#fff2cc;strokeColor=#d6b656;" parent="ZEHT2UMX6JQqBzf9jMgQ-1" vertex="1">
          <mxGeometry x="500" y="490" width="75" height="50" as="geometry"/>
        </mxCell>
        <mxCell id="i5ZoypDGlgfRBe6BiRU7-7" value="Error" style="ellipse;whiteSpace=wrap;html=1;rounded=0;shadow=1;comic=0;labelBackgroundColor=none;strokeWidth=1;fontFamily=Verdana;fontSize=12;align=center;fillColor=#f8cecc;strokeColor=#b85450;" parent="ZEHT2UMX6JQqBzf9jMgQ-1" vertex="1">
          <mxGeometry x="260" y="255" width="75" height="50" as="geometry"/>
        </mxCell>
        <mxCell id="i5ZoypDGlgfRBe6BiRU7-8" value="" style="curved=1;endArrow=classic;html=1;exitX=1;exitY=0.5;exitDx=0;exitDy=0;entryX=0.5;entryY=0;entryDx=0;entryDy=0;strokeColor=#B3B3B3;" parent="ZEHT2UMX6JQqBzf9jMgQ-1" source="i5ZoypDGlgfRBe6BiRU7-2" target="i5ZoypDGlgfRBe6BiRU7-4" edge="1">
          <mxGeometry width="50" height="50" relative="1" as="geometry">
            <mxPoint x="512.5" y="185" as="sourcePoint"/>
            <mxPoint x="562.5" y="135" as="targetPoint"/>
            <Array as="points">
              <mxPoint x="538" y="200"/>
            </Array>
          </mxGeometry>
        </mxCell>
        <mxCell id="i5ZoypDGlgfRBe6BiRU7-9" value="Config == OK" style="text;html=1;strokeColor=none;fillColor=#ffffff;align=center;verticalAlign=middle;whiteSpace=wrap;rounded=0;" parent="ZEHT2UMX6JQqBzf9jMgQ-1" vertex="1">
          <mxGeometry x="480" y="220" width="90" height="20" as="geometry"/>
        </mxCell>
        <mxCell id="i5ZoypDGlgfRBe6BiRU7-10" value="&lt;span&gt;Send Error&lt;/span&gt;" style="ellipse;whiteSpace=wrap;html=1;rounded=0;shadow=1;comic=0;labelBackgroundColor=none;strokeWidth=1;fontFamily=Verdana;fontSize=12;align=center;fillColor=#dae8fc;strokeColor=#6c8ebf;" parent="ZEHT2UMX6JQqBzf9jMgQ-1" vertex="1">
          <mxGeometry x="670" y="195" width="75" height="50" as="geometry"/>
        </mxCell>
        <mxCell id="i5ZoypDGlgfRBe6BiRU7-11" value="" style="curved=1;endArrow=classic;html=1;strokeColor=#B3B3B3;exitX=1;exitY=0.5;exitDx=0;exitDy=0;" parent="ZEHT2UMX6JQqBzf9jMgQ-1" source="i5ZoypDGlgfRBe6BiRU7-4" edge="1">
          <mxGeometry width="50" height="50" relative="1" as="geometry">
            <mxPoint x="637.5" y="290" as="sourcePoint"/>
            <mxPoint x="687.5" y="240" as="targetPoint"/>
            <Array as="points">
              <mxPoint x="640" y="300"/>
            </Array>
          </mxGeometry>
        </mxCell>
        <mxCell id="i5ZoypDGlgfRBe6BiRU7-12" value="M&amp;nbsp;&lt;span style=&quot;text-align: left ; white-space: nowrap&quot;&gt;≠ Up&lt;br&gt;&amp;amp;&lt;br&gt;&lt;/span&gt;M&amp;nbsp;&lt;span style=&quot;text-align: left ; white-space: nowrap&quot;&gt;≠ Down&lt;/span&gt;" style="text;html=1;strokeColor=none;fillColor=#ffffff;align=center;verticalAlign=middle;whiteSpace=wrap;rounded=0;" parent="ZEHT2UMX6JQqBzf9jMgQ-1" vertex="1">
          <mxGeometry x="605" y="270" width="90" height="40" as="geometry"/>
        </mxCell>
        <mxCell id="i5ZoypDGlgfRBe6BiRU7-13" value="" style="curved=1;endArrow=classic;html=1;strokeColor=#B3B3B3;exitX=0.5;exitY=0;exitDx=0;exitDy=0;entryX=0.5;entryY=1;entryDx=0;entryDy=0;" parent="ZEHT2UMX6JQqBzf9jMgQ-1" source="i5ZoypDGlgfRBe6BiRU7-6" target="i5ZoypDGlgfRBe6BiRU7-4" edge="1">
          <mxGeometry width="50" height="50" relative="1" as="geometry">
            <mxPoint x="520" y="470" as="sourcePoint"/>
            <mxPoint x="570" y="420" as="targetPoint"/>
            <Array as="points">
              <mxPoint x="520" y="420"/>
            </Array>
          </mxGeometry>
        </mxCell>
        <mxCell id="i5ZoypDGlgfRBe6BiRU7-14" value="" style="curved=1;endArrow=classic;html=1;strokeColor=#B3B3B3;exitX=0;exitY=1;exitDx=0;exitDy=0;entryX=1;entryY=0.5;entryDx=0;entryDy=0;" parent="ZEHT2UMX6JQqBzf9jMgQ-1" source="i5ZoypDGlgfRBe6BiRU7-3" target="i5ZoypDGlgfRBe6BiRU7-6" edge="1">
          <mxGeometry width="50" height="50" relative="1" as="geometry">
            <mxPoint x="590" y="570" as="sourcePoint"/>
            <mxPoint x="640" y="520" as="targetPoint"/>
            <Array as="points">
              <mxPoint x="610" y="500"/>
              <mxPoint x="590" y="515"/>
            </Array>
          </mxGeometry>
        </mxCell>
        <mxCell id="i5ZoypDGlgfRBe6BiRU7-15" value="" style="curved=1;endArrow=classic;html=1;strokeColor=#B3B3B3;exitX=0.5;exitY=1;exitDx=0;exitDy=0;entryX=0;entryY=0.5;entryDx=0;entryDy=0;" parent="ZEHT2UMX6JQqBzf9jMgQ-1" source="i5ZoypDGlgfRBe6BiRU7-5" target="i5ZoypDGlgfRBe6BiRU7-6" edge="1">
          <mxGeometry width="50" height="50" relative="1" as="geometry">
            <mxPoint x="450" y="540" as="sourcePoint"/>
            <mxPoint x="500" y="490" as="targetPoint"/>
            <Array as="points">
              <mxPoint x="454" y="490"/>
              <mxPoint x="490" y="520"/>
            </Array>
          </mxGeometry>
        </mxCell>
        <mxCell id="i5ZoypDGlgfRBe6BiRU7-16" value="" style="curved=1;endArrow=classic;html=1;strokeColor=#B3B3B3;exitX=0;exitY=1;exitDx=0;exitDy=0;entryX=0.5;entryY=0;entryDx=0;entryDy=0;" parent="ZEHT2UMX6JQqBzf9jMgQ-1" source="i5ZoypDGlgfRBe6BiRU7-4" target="i5ZoypDGlgfRBe6BiRU7-5" edge="1">
          <mxGeometry width="50" height="50" relative="1" as="geometry">
            <mxPoint x="432.5" y="400" as="sourcePoint"/>
            <mxPoint x="482.5" y="350" as="targetPoint"/>
            <Array as="points">
              <mxPoint x="483" y="380"/>
              <mxPoint x="450" y="400"/>
            </Array>
          </mxGeometry>
        </mxCell>
        <mxCell id="i5ZoypDGlgfRBe6BiRU7-17" value="" style="curved=1;endArrow=classic;html=1;strokeColor=#B3B3B3;exitX=1;exitY=1;exitDx=0;exitDy=0;entryX=0;entryY=0;entryDx=0;entryDy=0;" parent="ZEHT2UMX6JQqBzf9jMgQ-1" source="i5ZoypDGlgfRBe6BiRU7-4" target="i5ZoypDGlgfRBe6BiRU7-3" edge="1">
          <mxGeometry width="50" height="50" relative="1" as="geometry">
            <mxPoint x="582.5" y="430" as="sourcePoint"/>
            <mxPoint x="632.5" y="380" as="targetPoint"/>
            <Array as="points">
              <mxPoint x="582.5" y="380"/>
            </Array>
          </mxGeometry>
        </mxCell>
        <mxCell id="i5ZoypDGlgfRBe6BiRU7-18" value="M ==&lt;span style=&quot;text-align: left ; white-space: nowrap&quot;&gt;&amp;nbsp;Down&lt;/span&gt;" style="text;html=1;strokeColor=none;fillColor=#ffffff;align=center;verticalAlign=middle;whiteSpace=wrap;rounded=0;" parent="ZEHT2UMX6JQqBzf9jMgQ-1" vertex="1">
          <mxGeometry x="560" y="385" width="90" height="20" as="geometry"/>
        </mxCell>
        <mxCell id="i5ZoypDGlgfRBe6BiRU7-19" value="M ==&lt;span style=&quot;text-align: left ; white-space: nowrap&quot;&gt;&amp;nbsp;Up&lt;/span&gt;" style="text;html=1;strokeColor=none;fillColor=#ffffff;align=center;verticalAlign=middle;whiteSpace=wrap;rounded=0;" parent="ZEHT2UMX6JQqBzf9jMgQ-1" vertex="1">
          <mxGeometry x="407.5" y="365" width="90" height="20" as="geometry"/>
        </mxCell>
        <mxCell id="i5ZoypDGlgfRBe6BiRU7-20" value="" style="curved=1;endArrow=classic;html=1;strokeColor=#B3B3B3;exitX=0;exitY=0;exitDx=0;exitDy=0;entryX=0;entryY=1;entryDx=0;entryDy=0;" parent="ZEHT2UMX6JQqBzf9jMgQ-1" source="i5ZoypDGlgfRBe6BiRU7-4" target="i5ZoypDGlgfRBe6BiRU7-4" edge="1">
          <mxGeometry width="50" height="50" relative="1" as="geometry">
            <mxPoint x="420" y="340" as="sourcePoint"/>
            <mxPoint x="470" y="290" as="targetPoint"/>
            <Array as="points">
              <mxPoint x="430" y="270"/>
              <mxPoint x="410" y="360"/>
            </Array>
          </mxGeometry>
        </mxCell>
        <mxCell id="i5ZoypDGlgfRBe6BiRU7-21" value="M ==&lt;span style=&quot;text-align: left ; white-space: nowrap&quot;&gt;&amp;nbsp;NULL&lt;/span&gt;" style="text;html=1;strokeColor=none;fillColor=#ffffff;align=center;verticalAlign=middle;whiteSpace=wrap;rounded=0;" parent="ZEHT2UMX6JQqBzf9jMgQ-1" vertex="1">
          <mxGeometry x="375" y="305" width="90" height="20" as="geometry"/>
        </mxCell>
        <mxCell id="i5ZoypDGlgfRBe6BiRU7-22" value="" style="curved=1;endArrow=classic;html=1;strokeColor=#B3B3B3;entryX=1;entryY=0;entryDx=0;entryDy=0;exitX=0;exitY=1;exitDx=0;exitDy=0;" parent="ZEHT2UMX6JQqBzf9jMgQ-1" source="i5ZoypDGlgfRBe6BiRU7-2" target="i5ZoypDGlgfRBe6BiRU7-7" edge="1">
          <mxGeometry width="50" height="50" relative="1" as="geometry">
            <mxPoint x="350" y="260" as="sourcePoint"/>
            <mxPoint x="400" y="210" as="targetPoint"/>
            <Array as="points">
              <mxPoint x="390" y="220"/>
            </Array>
          </mxGeometry>
        </mxCell>
        <mxCell id="i5ZoypDGlgfRBe6BiRU7-23" value="Config == NOK" style="text;html=1;strokeColor=none;fillColor=#ffffff;align=center;verticalAlign=middle;whiteSpace=wrap;rounded=0;" parent="ZEHT2UMX6JQqBzf9jMgQ-1" vertex="1">
          <mxGeometry x="335" y="222.5" width="90" height="20" as="geometry"/>
        </mxCell>
        <mxCell id="i5ZoypDGlgfRBe6BiRU7-24" value="" style="curved=1;endArrow=classic;html=1;strokeColor=#B3B3B3;entryX=0.5;entryY=1;entryDx=0;entryDy=0;exitX=0;exitY=0.5;exitDx=0;exitDy=0;" parent="ZEHT2UMX6JQqBzf9jMgQ-1" source="i5ZoypDGlgfRBe6BiRU7-7" target="i5ZoypDGlgfRBe6BiRU7-7" edge="1">
          <mxGeometry width="50" height="50" relative="1" as="geometry">
            <mxPoint x="220" y="390" as="sourcePoint"/>
            <mxPoint x="270" y="340" as="targetPoint"/>
            <Array as="points">
              <mxPoint x="190" y="310"/>
              <mxPoint x="260" y="380"/>
            </Array>
          </mxGeometry>
        </mxCell>
        <mxCell id="i5ZoypDGlgfRBe6BiRU7-25" value="t &amp;lt;= 1s" style="text;html=1;strokeColor=none;fillColor=#ffffff;align=center;verticalAlign=middle;whiteSpace=wrap;rounded=0;" parent="ZEHT2UMX6JQqBzf9jMgQ-1" vertex="1">
          <mxGeometry x="160" y="315" width="90" height="20" as="geometry"/>
        </mxCell>
        <mxCell id="i5ZoypDGlgfRBe6BiRU7-26" style="edgeStyle=orthogonalEdgeStyle;rounded=0;orthogonalLoop=1;jettySize=auto;html=1;entryX=1;entryY=1;entryDx=0;entryDy=0;strokeColor=#000000;" parent="ZEHT2UMX6JQqBzf9jMgQ-1" source="i5ZoypDGlgfRBe6BiRU7-27" target="i5ZoypDGlgfRBe6BiRU7-10" edge="1">
          <mxGeometry relative="1" as="geometry"/>
        </mxCell>
        <mxCell id="i5ZoypDGlgfRBe6BiRU7-27" value="2" style="text;html=1;align=center;verticalAlign=middle;whiteSpace=wrap;rounded=0;fillColor=#ffffff;strokeColor=#000000;" parent="ZEHT2UMX6JQqBzf9jMgQ-1" vertex="1">
          <mxGeometry x="790" y="235" width="20" height="20" as="geometry"/>
        </mxCell>
        <mxCell id="i5ZoypDGlgfRBe6BiRU7-28" style="edgeStyle=orthogonalEdgeStyle;rounded=0;orthogonalLoop=1;jettySize=auto;html=1;entryX=1;entryY=0.5;entryDx=0;entryDy=0;strokeColor=#000000;" parent="ZEHT2UMX6JQqBzf9jMgQ-1" source="i5ZoypDGlgfRBe6BiRU7-29" target="i5ZoypDGlgfRBe6BiRU7-10" edge="1">
          <mxGeometry relative="1" as="geometry"/>
        </mxCell>
        <mxCell id="i5ZoypDGlgfRBe6BiRU7-29" value="3" style="text;html=1;align=center;verticalAlign=middle;whiteSpace=wrap;rounded=0;fillColor=#ffffff;strokeColor=#000000;" parent="ZEHT2UMX6JQqBzf9jMgQ-1" vertex="1">
          <mxGeometry x="790" y="195" width="20" height="20" as="geometry"/>
        </mxCell>
        <mxCell id="i5ZoypDGlgfRBe6BiRU7-30" value="1" style="text;html=1;align=center;verticalAlign=middle;whiteSpace=wrap;rounded=0;fillColor=#ffffff;strokeColor=#000000;" parent="ZEHT2UMX6JQqBzf9jMgQ-1" vertex="1">
          <mxGeometry x="205" y="175" width="20" height="20" as="geometry"/>
        </mxCell>
        <mxCell id="i5ZoypDGlgfRBe6BiRU7-31" value="" style="curved=1;endArrow=classic;html=1;strokeColor=#B3B3B3;exitX=0;exitY=0;exitDx=0;exitDy=0;entryX=0.5;entryY=1;entryDx=0;entryDy=0;" parent="ZEHT2UMX6JQqBzf9jMgQ-1" source="i5ZoypDGlgfRBe6BiRU7-7" target="i5ZoypDGlgfRBe6BiRU7-30" edge="1">
          <mxGeometry width="50" height="50" relative="1" as="geometry">
            <mxPoint x="135" y="272.5" as="sourcePoint"/>
            <mxPoint x="185" y="222.5" as="targetPoint"/>
            <Array as="points">
              <mxPoint x="250" y="260"/>
              <mxPoint x="220" y="240"/>
            </Array>
          </mxGeometry>
        </mxCell>
        <mxCell id="i5ZoypDGlgfRBe6BiRU7-32" value="t &amp;gt; 1s" style="text;html=1;strokeColor=none;fillColor=#ffffff;align=center;verticalAlign=middle;whiteSpace=wrap;rounded=0;" parent="ZEHT2UMX6JQqBzf9jMgQ-1" vertex="1">
          <mxGeometry x="180" y="225" width="90" height="20" as="geometry"/>
        </mxCell>
        <mxCell id="i5ZoypDGlgfRBe6BiRU7-33" value="3" style="text;html=1;align=center;verticalAlign=middle;whiteSpace=wrap;rounded=0;fillColor=#ffffff;strokeColor=#000000;" parent="ZEHT2UMX6JQqBzf9jMgQ-1" vertex="1">
          <mxGeometry x="725" y="480" width="20" height="20" as="geometry"/>
        </mxCell>
        <mxCell id="i5ZoypDGlgfRBe6BiRU7-34" value="3" style="text;html=1;align=center;verticalAlign=middle;whiteSpace=wrap;rounded=0;fillColor=#ffffff;strokeColor=#000000;" parent="ZEHT2UMX6JQqBzf9jMgQ-1" vertex="1">
          <mxGeometry x="365" y="480" width="20" height="20" as="geometry"/>
        </mxCell>
        <mxCell id="i5ZoypDGlgfRBe6BiRU7-35" value="" style="curved=1;endArrow=classic;html=1;strokeColor=#B3B3B3;exitX=0;exitY=1;exitDx=0;exitDy=0;entryX=1;entryY=0.5;entryDx=0;entryDy=0;" parent="ZEHT2UMX6JQqBzf9jMgQ-1" source="i5ZoypDGlgfRBe6BiRU7-5" target="i5ZoypDGlgfRBe6BiRU7-34" edge="1">
          <mxGeometry width="50" height="50" relative="1" as="geometry">
            <mxPoint x="385" y="580" as="sourcePoint"/>
            <mxPoint x="435" y="530" as="targetPoint"/>
            <Array as="points">
              <mxPoint x="401" y="480"/>
            </Array>
          </mxGeometry>
        </mxCell>
        <mxCell id="i5ZoypDGlgfRBe6BiRU7-36" value="" style="curved=1;endArrow=classic;html=1;strokeColor=#B3B3B3;entryX=0;entryY=0.5;entryDx=0;entryDy=0;exitX=0.5;exitY=1;exitDx=0;exitDy=0;" parent="ZEHT2UMX6JQqBzf9jMgQ-1" source="i5ZoypDGlgfRBe6BiRU7-3" target="i5ZoypDGlgfRBe6BiRU7-33" edge="1">
          <mxGeometry width="50" height="50" relative="1" as="geometry">
            <mxPoint x="607.5" y="590" as="sourcePoint"/>
            <mxPoint x="657.5" y="540" as="targetPoint"/>
            <Array as="points">
              <mxPoint x="670" y="490"/>
              <mxPoint x="690" y="500"/>
            </Array>
          </mxGeometry>
        </mxCell>
        <mxCell id="iRdtnCvsEIDdFh6g7ANU-0" value="Nomenclature" style="swimlane;fontStyle=3;childLayout=stackLayout;horizontal=1;startSize=26;fillColor=#e0e0e0;horizontalStack=0;resizeParent=1;resizeParentMax=0;resizeLast=0;collapsible=1;marginBottom=0;swimlaneFillColor=#ffffff;align=center;fontSize=14;" parent="ZEHT2UMX6JQqBzf9jMgQ-1" vertex="1">
          <mxGeometry x="40" y="420" width="196" height="206" as="geometry"/>
        </mxCell>
        <mxCell id="iRdtnCvsEIDdFh6g7ANU-5" value="Time (s = seconds)" style="shape=partialRectangle;top=0;left=0;right=0;bottom=1;align=left;verticalAlign=middle;fillColor=none;spacingLeft=60;spacingRight=4;overflow=hidden;rotatable=0;points=[[0,0.5],[1,0.5]];portConstraint=eastwest;dropTarget=0;fontStyle=0;fontSize=12;" parent="iRdtnCvsEIDdFh6g7ANU-0" vertex="1">
          <mxGeometry y="26" width="196" height="30" as="geometry"/>
        </mxCell>
        <mxCell id="iRdtnCvsEIDdFh6g7ANU-6" value="t" style="shape=partialRectangle;fontStyle=1;top=0;left=0;bottom=0;fillColor=none;align=left;verticalAlign=middle;spacingLeft=4;spacingRight=4;overflow=hidden;rotatable=0;points=[];portConstraint=eastwest;part=1;fontSize=12;" parent="iRdtnCvsEIDdFh6g7ANU-5" vertex="1" connectable="0">
          <mxGeometry width="56" height="30" as="geometry"/>
        </mxCell>
        <mxCell id="iRdtnCvsEIDdFh6g7ANU-11" value="No correct" style="shape=partialRectangle;top=0;left=0;right=0;bottom=1;align=left;verticalAlign=middle;fillColor=none;spacingLeft=60;spacingRight=4;overflow=hidden;rotatable=0;points=[[0,0.5],[1,0.5]];portConstraint=eastwest;dropTarget=0;fontStyle=0;fontSize=12;" parent="iRdtnCvsEIDdFh6g7ANU-0" vertex="1">
          <mxGeometry y="56" width="196" height="30" as="geometry"/>
        </mxCell>
        <mxCell id="iRdtnCvsEIDdFh6g7ANU-12" value="NOK" style="shape=partialRectangle;fontStyle=1;top=0;left=0;bottom=0;fillColor=none;align=left;verticalAlign=middle;spacingLeft=4;spacingRight=4;overflow=hidden;rotatable=0;points=[];portConstraint=eastwest;part=1;fontSize=12;" parent="iRdtnCvsEIDdFh6g7ANU-11" vertex="1" connectable="0">
          <mxGeometry width="56" height="30" as="geometry"/>
        </mxCell>
        <mxCell id="iRdtnCvsEIDdFh6g7ANU-13" value="Correct" style="shape=partialRectangle;top=0;left=0;right=0;bottom=1;align=left;verticalAlign=middle;fillColor=none;spacingLeft=60;spacingRight=4;overflow=hidden;rotatable=0;points=[[0,0.5],[1,0.5]];portConstraint=eastwest;dropTarget=0;fontStyle=0;fontSize=12;" parent="iRdtnCvsEIDdFh6g7ANU-0" vertex="1">
          <mxGeometry y="86" width="196" height="30" as="geometry"/>
        </mxCell>
        <mxCell id="iRdtnCvsEIDdFh6g7ANU-14" value="OK" style="shape=partialRectangle;fontStyle=1;top=0;left=0;bottom=0;fillColor=none;align=left;verticalAlign=middle;spacingLeft=4;spacingRight=4;overflow=hidden;rotatable=0;points=[];portConstraint=eastwest;part=1;fontSize=12;" parent="iRdtnCvsEIDdFh6g7ANU-13" vertex="1" connectable="0">
          <mxGeometry width="56" height="30" as="geometry"/>
        </mxCell>
        <mxCell id="iRdtnCvsEIDdFh6g7ANU-15" value="No answer" style="shape=partialRectangle;top=0;left=0;right=0;bottom=1;align=left;verticalAlign=middle;fillColor=none;spacingLeft=60;spacingRight=4;overflow=hidden;rotatable=0;points=[[0,0.5],[1,0.5]];portConstraint=eastwest;dropTarget=0;fontStyle=0;fontSize=12;" parent="iRdtnCvsEIDdFh6g7ANU-0" vertex="1">
          <mxGeometry y="116" width="196" height="30" as="geometry"/>
        </mxCell>
        <mxCell id="iRdtnCvsEIDdFh6g7ANU-16" value="NULL" style="shape=partialRectangle;fontStyle=1;top=0;left=0;bottom=0;fillColor=none;align=left;verticalAlign=middle;spacingLeft=4;spacingRight=4;overflow=hidden;rotatable=0;points=[];portConstraint=eastwest;part=1;fontSize=12;" parent="iRdtnCvsEIDdFh6g7ANU-15" vertex="1" connectable="0">
          <mxGeometry width="56" height="30" as="geometry"/>
        </mxCell>
        <mxCell id="iRdtnCvsEIDdFh6g7ANU-17" value="Configuration" style="shape=partialRectangle;top=0;left=0;right=0;bottom=1;align=left;verticalAlign=middle;fillColor=none;spacingLeft=60;spacingRight=4;overflow=hidden;rotatable=0;points=[[0,0.5],[1,0.5]];portConstraint=eastwest;dropTarget=0;fontStyle=0;fontSize=12;" parent="iRdtnCvsEIDdFh6g7ANU-0" vertex="1">
          <mxGeometry y="146" width="196" height="30" as="geometry"/>
        </mxCell>
        <mxCell id="iRdtnCvsEIDdFh6g7ANU-18" value="config" style="shape=partialRectangle;fontStyle=1;top=0;left=0;bottom=0;fillColor=none;align=left;verticalAlign=middle;spacingLeft=4;spacingRight=4;overflow=hidden;rotatable=0;points=[];portConstraint=eastwest;part=1;fontSize=12;" parent="iRdtnCvsEIDdFh6g7ANU-17" vertex="1" connectable="0">
          <mxGeometry width="56" height="30" as="geometry"/>
        </mxCell>
        <mxCell id="iRdtnCvsEIDdFh6g7ANU-19" value="Message" style="shape=partialRectangle;top=0;left=0;right=0;bottom=1;align=left;verticalAlign=middle;fillColor=none;spacingLeft=60;spacingRight=4;overflow=hidden;rotatable=0;points=[[0,0.5],[1,0.5]];portConstraint=eastwest;dropTarget=0;fontStyle=0;fontSize=12;" parent="iRdtnCvsEIDdFh6g7ANU-0" vertex="1">
          <mxGeometry y="176" width="196" height="30" as="geometry"/>
        </mxCell>
        <mxCell id="iRdtnCvsEIDdFh6g7ANU-20" value="M" style="shape=partialRectangle;fontStyle=1;top=0;left=0;bottom=0;fillColor=none;align=left;verticalAlign=middle;spacingLeft=4;spacingRight=4;overflow=hidden;rotatable=0;points=[];portConstraint=eastwest;part=1;fontSize=12;" parent="iRdtnCvsEIDdFh6g7ANU-19" vertex="1" connectable="0">
          <mxGeometry width="56" height="30" as="geometry"/>
        </mxCell>
      </root>
    </mxGraphModel>
  </diagram>
  <diagram id="S9mXcCqpi6bSRezIgJMZ" name="WindowUp">
    <mxGraphModel dx="1024" dy="534" grid="1" gridSize="10" guides="1" tooltips="1" connect="1" arrows="1" fold="1" page="1" pageScale="1" pageWidth="1100" pageHeight="500" background="#ffffff" math="0" shadow="0">
      <root>
        <mxCell id="I4yx5gBmCXHiHPGcrVMx-0"/>
        <mxCell id="I4yx5gBmCXHiHPGcrVMx-1" parent="I4yx5gBmCXHiHPGcrVMx-0"/>
        <mxCell id="xRk7Ef4-2VAYpKH-kcGc-0" value="Selector" style="ellipse;whiteSpace=wrap;html=1;rounded=0;shadow=1;comic=0;labelBackgroundColor=none;strokeWidth=1;fontFamily=Verdana;fontSize=12;align=center;fillColor=#e1d5e7;strokeColor=#9673a6;" parent="I4yx5gBmCXHiHPGcrVMx-1" vertex="1">
          <mxGeometry x="379.5" y="60" width="90" height="60" as="geometry"/>
        </mxCell>
        <mxCell id="xRk7Ef4-2VAYpKH-kcGc-1" value="D3 ON" style="ellipse;whiteSpace=wrap;html=1;rounded=0;shadow=1;comic=0;labelBackgroundColor=none;strokeWidth=1;fontFamily=Verdana;fontSize=12;align=center;fillColor=#dae8fc;strokeColor=#6c8ebf;" parent="I4yx5gBmCXHiHPGcrVMx-1" vertex="1">
          <mxGeometry x="479.5" y="180" width="75" height="50" as="geometry"/>
        </mxCell>
        <mxCell id="xRk7Ef4-2VAYpKH-kcGc-2" value="D4 ON" style="ellipse;whiteSpace=wrap;html=1;rounded=0;shadow=1;comic=0;labelBackgroundColor=none;strokeWidth=1;fontFamily=Verdana;fontSize=12;align=center;fillColor=#dae8fc;strokeColor=#6c8ebf;" parent="I4yx5gBmCXHiHPGcrVMx-1" vertex="1">
          <mxGeometry x="629.5" y="180" width="75" height="50" as="geometry"/>
        </mxCell>
        <mxCell id="xRk7Ef4-2VAYpKH-kcGc-3" value="q++" style="ellipse;whiteSpace=wrap;html=1;rounded=0;shadow=1;comic=0;labelBackgroundColor=none;strokeWidth=1;fontFamily=Verdana;fontSize=12;align=center;fillColor=#fff2cc;strokeColor=#d6b656;" parent="I4yx5gBmCXHiHPGcrVMx-1" vertex="1">
          <mxGeometry x="629.5" y="300" width="75" height="50" as="geometry"/>
        </mxCell>
        <mxCell id="xRk7Ef4-2VAYpKH-kcGc-4" value="q++" style="ellipse;whiteSpace=wrap;html=1;rounded=0;shadow=1;comic=0;labelBackgroundColor=none;strokeWidth=1;fontFamily=Verdana;fontSize=12;align=center;fillColor=#fff2cc;strokeColor=#d6b656;" parent="I4yx5gBmCXHiHPGcrVMx-1" vertex="1">
          <mxGeometry x="479.5" y="300" width="75" height="50" as="geometry"/>
        </mxCell>
        <mxCell id="xRk7Ef4-2VAYpKH-kcGc-5" value="D2 ON&amp;nbsp;" style="ellipse;whiteSpace=wrap;html=1;rounded=0;shadow=1;comic=0;labelBackgroundColor=none;strokeWidth=1;fontFamily=Verdana;fontSize=12;align=center;fillColor=#dae8fc;strokeColor=#6c8ebf;" parent="I4yx5gBmCXHiHPGcrVMx-1" vertex="1">
          <mxGeometry x="309.5" y="180" width="75" height="50" as="geometry"/>
        </mxCell>
        <mxCell id="xRk7Ef4-2VAYpKH-kcGc-6" value="D1 ON&amp;nbsp;" style="ellipse;whiteSpace=wrap;html=1;rounded=0;shadow=1;comic=0;labelBackgroundColor=none;strokeWidth=1;fontFamily=Verdana;fontSize=12;align=center;fillColor=#dae8fc;strokeColor=#6c8ebf;" parent="I4yx5gBmCXHiHPGcrVMx-1" vertex="1">
          <mxGeometry x="149.5" y="180" width="75" height="50" as="geometry"/>
        </mxCell>
        <mxCell id="xRk7Ef4-2VAYpKH-kcGc-7" value="q++" style="ellipse;whiteSpace=wrap;html=1;rounded=0;shadow=1;comic=0;labelBackgroundColor=none;strokeWidth=1;fontFamily=Verdana;fontSize=12;align=center;fillColor=#fff2cc;strokeColor=#d6b656;" parent="I4yx5gBmCXHiHPGcrVMx-1" vertex="1">
          <mxGeometry x="149.5" y="300" width="75" height="50" as="geometry"/>
        </mxCell>
        <mxCell id="xRk7Ef4-2VAYpKH-kcGc-8" value="q++" style="ellipse;whiteSpace=wrap;html=1;rounded=0;shadow=1;comic=0;labelBackgroundColor=none;strokeWidth=1;fontFamily=Verdana;fontSize=12;align=center;fillColor=#fff2cc;strokeColor=#d6b656;" parent="I4yx5gBmCXHiHPGcrVMx-1" vertex="1">
          <mxGeometry x="309.5" y="300" width="75" height="50" as="geometry"/>
        </mxCell>
        <mxCell id="xRk7Ef4-2VAYpKH-kcGc-9" value="Do Nothing" style="rounded=0;whiteSpace=wrap;html=1;fillColor=#d5e8d4;strokeColor=#82b366;" parent="I4yx5gBmCXHiHPGcrVMx-1" vertex="1">
          <mxGeometry x="729.5" y="110" width="105" height="30" as="geometry"/>
        </mxCell>
        <mxCell id="xRk7Ef4-2VAYpKH-kcGc-10" value="" style="curved=1;endArrow=classic;html=1;fontColor=#B3B3B3;entryX=0.5;entryY=0;entryDx=0;entryDy=0;exitX=0;exitY=0.5;exitDx=0;exitDy=0;strokeColor=#B3B3B3;" parent="I4yx5gBmCXHiHPGcrVMx-1" source="xRk7Ef4-2VAYpKH-kcGc-0" target="xRk7Ef4-2VAYpKH-kcGc-6" edge="1">
          <mxGeometry width="50" height="50" relative="1" as="geometry">
            <mxPoint x="284.5" y="130" as="sourcePoint"/>
            <mxPoint x="334.5" y="80" as="targetPoint"/>
            <Array as="points">
              <mxPoint x="239.5" y="120"/>
            </Array>
          </mxGeometry>
        </mxCell>
        <mxCell id="xRk7Ef4-2VAYpKH-kcGc-11" value="" style="curved=1;endArrow=classic;html=1;strokeColor=#B3B3B3;fontColor=#B3B3B3;exitX=0;exitY=1;exitDx=0;exitDy=0;entryX=0.5;entryY=0;entryDx=0;entryDy=0;" parent="I4yx5gBmCXHiHPGcrVMx-1" source="xRk7Ef4-2VAYpKH-kcGc-0" target="xRk7Ef4-2VAYpKH-kcGc-5" edge="1">
          <mxGeometry width="50" height="50" relative="1" as="geometry">
            <mxPoint x="407" y="200" as="sourcePoint"/>
            <mxPoint x="457" y="150" as="targetPoint"/>
            <Array as="points">
              <mxPoint x="379.5" y="140"/>
            </Array>
          </mxGeometry>
        </mxCell>
        <mxCell id="xRk7Ef4-2VAYpKH-kcGc-12" value="" style="curved=1;endArrow=classic;html=1;strokeColor=#B3B3B3;fontColor=#B3B3B3;exitX=1;exitY=1;exitDx=0;exitDy=0;entryX=0.5;entryY=0;entryDx=0;entryDy=0;" parent="I4yx5gBmCXHiHPGcrVMx-1" source="xRk7Ef4-2VAYpKH-kcGc-0" target="xRk7Ef4-2VAYpKH-kcGc-1" edge="1">
          <mxGeometry width="50" height="50" relative="1" as="geometry">
            <mxPoint x="529.5" y="140" as="sourcePoint"/>
            <mxPoint x="579.5" y="90" as="targetPoint"/>
            <Array as="points">
              <mxPoint x="469.5" y="140"/>
            </Array>
          </mxGeometry>
        </mxCell>
        <mxCell id="xRk7Ef4-2VAYpKH-kcGc-13" value="" style="curved=1;endArrow=classic;html=1;strokeColor=#B3B3B3;fontColor=#B3B3B3;exitX=1;exitY=0.5;exitDx=0;exitDy=0;entryX=0.5;entryY=0;entryDx=0;entryDy=0;" parent="I4yx5gBmCXHiHPGcrVMx-1" source="xRk7Ef4-2VAYpKH-kcGc-0" target="xRk7Ef4-2VAYpKH-kcGc-2" edge="1">
          <mxGeometry width="50" height="50" relative="1" as="geometry">
            <mxPoint x="549.5" y="130" as="sourcePoint"/>
            <mxPoint x="599.5" y="80" as="targetPoint"/>
            <Array as="points">
              <mxPoint x="599.5" y="130"/>
            </Array>
          </mxGeometry>
        </mxCell>
        <mxCell id="xRk7Ef4-2VAYpKH-kcGc-14" value="" style="curved=1;endArrow=classic;html=1;strokeColor=#B3B3B3;fontColor=#B3B3B3;exitX=1;exitY=0;exitDx=0;exitDy=0;entryX=0.5;entryY=0;entryDx=0;entryDy=0;" parent="I4yx5gBmCXHiHPGcrVMx-1" source="xRk7Ef4-2VAYpKH-kcGc-0" target="xRk7Ef4-2VAYpKH-kcGc-9" edge="1">
          <mxGeometry width="50" height="50" relative="1" as="geometry">
            <mxPoint x="599.5" y="105" as="sourcePoint"/>
            <mxPoint x="649.5" y="55" as="targetPoint"/>
            <Array as="points">
              <mxPoint x="599.5" y="50"/>
            </Array>
          </mxGeometry>
        </mxCell>
        <mxCell id="xRk7Ef4-2VAYpKH-kcGc-15" value="" style="curved=1;endArrow=classic;html=1;strokeColor=#B3B3B3;fontColor=#B3B3B3;entryX=0.5;entryY=0;entryDx=0;entryDy=0;exitX=0.5;exitY=1;exitDx=0;exitDy=0;" parent="I4yx5gBmCXHiHPGcrVMx-1" source="xRk7Ef4-2VAYpKH-kcGc-6" target="xRk7Ef4-2VAYpKH-kcGc-7" edge="1">
          <mxGeometry width="50" height="50" relative="1" as="geometry">
            <mxPoint x="149.5" y="420" as="sourcePoint"/>
            <mxPoint x="199.5" y="370" as="targetPoint"/>
            <Array as="points">
              <mxPoint x="189.5" y="250"/>
            </Array>
          </mxGeometry>
        </mxCell>
        <mxCell id="xRk7Ef4-2VAYpKH-kcGc-16" value="" style="curved=1;endArrow=classic;html=1;strokeColor=#B3B3B3;fontColor=#B3B3B3;exitX=0.5;exitY=1;exitDx=0;exitDy=0;entryX=0.5;entryY=0;entryDx=0;entryDy=0;" parent="I4yx5gBmCXHiHPGcrVMx-1" source="xRk7Ef4-2VAYpKH-kcGc-5" target="xRk7Ef4-2VAYpKH-kcGc-8" edge="1">
          <mxGeometry width="50" height="50" relative="1" as="geometry">
            <mxPoint x="354.5" y="290" as="sourcePoint"/>
            <mxPoint x="404.5" y="240" as="targetPoint"/>
            <Array as="points">
              <mxPoint x="347.5" y="260"/>
            </Array>
          </mxGeometry>
        </mxCell>
        <mxCell id="xRk7Ef4-2VAYpKH-kcGc-17" value="" style="curved=1;endArrow=classic;html=1;strokeColor=#B3B3B3;fontColor=#B3B3B3;exitX=0.5;exitY=1;exitDx=0;exitDy=0;entryX=0.5;entryY=0;entryDx=0;entryDy=0;" parent="I4yx5gBmCXHiHPGcrVMx-1" source="xRk7Ef4-2VAYpKH-kcGc-1" target="xRk7Ef4-2VAYpKH-kcGc-4" edge="1">
          <mxGeometry width="50" height="50" relative="1" as="geometry">
            <mxPoint x="419.5" y="260" as="sourcePoint"/>
            <mxPoint x="419.5" y="330" as="targetPoint"/>
            <Array as="points"/>
          </mxGeometry>
        </mxCell>
        <mxCell id="xRk7Ef4-2VAYpKH-kcGc-18" value="" style="curved=1;endArrow=classic;html=1;strokeColor=#B3B3B3;fontColor=#B3B3B3;entryX=0.5;entryY=0;entryDx=0;entryDy=0;exitX=0.5;exitY=1;exitDx=0;exitDy=0;" parent="I4yx5gBmCXHiHPGcrVMx-1" source="xRk7Ef4-2VAYpKH-kcGc-2" target="xRk7Ef4-2VAYpKH-kcGc-3" edge="1">
          <mxGeometry width="50" height="50" relative="1" as="geometry">
            <mxPoint x="679.5" y="250" as="sourcePoint"/>
            <mxPoint x="709.5" y="330" as="targetPoint"/>
            <Array as="points"/>
          </mxGeometry>
        </mxCell>
        <mxCell id="xRk7Ef4-2VAYpKH-kcGc-19" value="" style="curved=1;endArrow=classic;html=1;strokeColor=#B3B3B3;fontColor=#B3B3B3;exitX=0.5;exitY=1;exitDx=0;exitDy=0;" parent="I4yx5gBmCXHiHPGcrVMx-1" source="xRk7Ef4-2VAYpKH-kcGc-7" edge="1">
          <mxGeometry width="50" height="50" relative="1" as="geometry">
            <mxPoint x="169.5" y="420" as="sourcePoint"/>
            <mxPoint x="187.5" y="470" as="targetPoint"/>
            <Array as="points">
              <mxPoint x="187.5" y="360"/>
            </Array>
          </mxGeometry>
        </mxCell>
        <mxCell id="xRk7Ef4-2VAYpKH-kcGc-20" value="" style="curved=1;endArrow=classic;html=1;strokeColor=#B3B3B3;fontColor=#B3B3B3;exitX=0.5;exitY=1;exitDx=0;exitDy=0;" parent="I4yx5gBmCXHiHPGcrVMx-1" edge="1">
          <mxGeometry width="50" height="50" relative="1" as="geometry">
            <mxPoint x="347" y="350" as="sourcePoint"/>
            <mxPoint x="347.5" y="470" as="targetPoint"/>
            <Array as="points">
              <mxPoint x="347.5" y="360"/>
            </Array>
          </mxGeometry>
        </mxCell>
        <mxCell id="xRk7Ef4-2VAYpKH-kcGc-21" value="" style="curved=1;endArrow=classic;html=1;strokeColor=#B3B3B3;fontColor=#B3B3B3;exitX=0.5;exitY=1;exitDx=0;exitDy=0;" parent="I4yx5gBmCXHiHPGcrVMx-1" edge="1">
          <mxGeometry width="50" height="50" relative="1" as="geometry">
            <mxPoint x="516.5" y="350" as="sourcePoint"/>
            <mxPoint x="517" y="470" as="targetPoint"/>
            <Array as="points">
              <mxPoint x="517" y="360"/>
            </Array>
          </mxGeometry>
        </mxCell>
        <mxCell id="xRk7Ef4-2VAYpKH-kcGc-22" value="" style="curved=1;endArrow=classic;html=1;strokeColor=#B3B3B3;fontColor=#B3B3B3;exitX=0.5;exitY=1;exitDx=0;exitDy=0;" parent="I4yx5gBmCXHiHPGcrVMx-1" edge="1">
          <mxGeometry width="50" height="50" relative="1" as="geometry">
            <mxPoint x="667" y="350" as="sourcePoint"/>
            <mxPoint x="667.5" y="470" as="targetPoint"/>
            <Array as="points">
              <mxPoint x="667.5" y="360"/>
            </Array>
          </mxGeometry>
        </mxCell>
        <mxCell id="xRk7Ef4-2VAYpKH-kcGc-23" value="" style="curved=1;endArrow=classic;html=1;strokeColor=#B3B3B3;fontColor=#B3B3B3;exitX=0.5;exitY=1;exitDx=0;exitDy=0;" parent="I4yx5gBmCXHiHPGcrVMx-1" source="xRk7Ef4-2VAYpKH-kcGc-9" edge="1">
          <mxGeometry width="50" height="50" relative="1" as="geometry">
            <mxPoint x="779.5" y="340" as="sourcePoint"/>
            <mxPoint x="780.5" y="470" as="targetPoint"/>
            <Array as="points"/>
          </mxGeometry>
        </mxCell>
        <mxCell id="xRk7Ef4-2VAYpKH-kcGc-24" value="" style="curved=1;endArrow=classic;html=1;strokeColor=#B3B3B3;fontColor=#B3B3B3;" parent="I4yx5gBmCXHiHPGcrVMx-1" edge="1">
          <mxGeometry width="50" height="50" relative="1" as="geometry">
            <mxPoint x="49.5" y="470" as="sourcePoint"/>
            <mxPoint x="839.5" y="470" as="targetPoint"/>
            <Array as="points">
              <mxPoint x="519.5" y="470"/>
            </Array>
          </mxGeometry>
        </mxCell>
        <mxCell id="xRk7Ef4-2VAYpKH-kcGc-25" value="q == 0" style="text;html=1;strokeColor=none;fillColor=#ffffff;align=center;verticalAlign=middle;whiteSpace=wrap;rounded=0;fontColor=#000000;" parent="I4yx5gBmCXHiHPGcrVMx-1" vertex="1">
          <mxGeometry x="249.5" y="110" width="40" height="20" as="geometry"/>
        </mxCell>
        <mxCell id="xRk7Ef4-2VAYpKH-kcGc-26" value="q == 1" style="text;html=1;strokeColor=none;fillColor=#ffffff;align=center;verticalAlign=middle;whiteSpace=wrap;rounded=0;fontColor=#000000;" parent="I4yx5gBmCXHiHPGcrVMx-1" vertex="1">
          <mxGeometry x="347" y="130" width="40" height="20" as="geometry"/>
        </mxCell>
        <mxCell id="xRk7Ef4-2VAYpKH-kcGc-27" value="q == 2" style="text;html=1;strokeColor=none;fillColor=#ffffff;align=center;verticalAlign=middle;whiteSpace=wrap;rounded=0;fontColor=#000000;" parent="I4yx5gBmCXHiHPGcrVMx-1" vertex="1">
          <mxGeometry x="459.5" y="140" width="40" height="20" as="geometry"/>
        </mxCell>
        <mxCell id="xRk7Ef4-2VAYpKH-kcGc-28" value="q == 3" style="text;html=1;strokeColor=none;fillColor=#ffffff;align=center;verticalAlign=middle;whiteSpace=wrap;rounded=0;fontColor=#000000;" parent="I4yx5gBmCXHiHPGcrVMx-1" vertex="1">
          <mxGeometry x="569.5" y="120" width="40" height="20" as="geometry"/>
        </mxCell>
        <mxCell id="xRk7Ef4-2VAYpKH-kcGc-29" value="q &amp;gt;= 4" style="text;html=1;strokeColor=none;fillColor=#ffffff;align=center;verticalAlign=middle;whiteSpace=wrap;rounded=0;fontColor=#000000;" parent="I4yx5gBmCXHiHPGcrVMx-1" vertex="1">
          <mxGeometry x="579.5" y="60" width="40" height="20" as="geometry"/>
        </mxCell>
        <mxCell id="xRk7Ef4-2VAYpKH-kcGc-30" value="&lt;font style=&quot;font-size: 10px&quot;&gt;D1 ON == OK&lt;/font&gt;" style="text;html=1;strokeColor=none;fillColor=#ffffff;align=center;verticalAlign=middle;whiteSpace=wrap;rounded=0;fontColor=#000000;" parent="I4yx5gBmCXHiHPGcrVMx-1" vertex="1">
          <mxGeometry x="142" y="250" width="90" height="20" as="geometry"/>
        </mxCell>
        <mxCell id="xRk7Ef4-2VAYpKH-kcGc-31" value="&lt;font style=&quot;font-size: 10px&quot;&gt;D2 ON == OK&lt;/font&gt;" style="text;html=1;strokeColor=none;fillColor=#ffffff;align=center;verticalAlign=middle;whiteSpace=wrap;rounded=0;fontColor=#000000;" parent="I4yx5gBmCXHiHPGcrVMx-1" vertex="1">
          <mxGeometry x="302" y="250" width="90" height="20" as="geometry"/>
        </mxCell>
        <mxCell id="xRk7Ef4-2VAYpKH-kcGc-32" value="&lt;font style=&quot;font-size: 10px&quot;&gt;D3&amp;nbsp;ON == OK&lt;/font&gt;" style="text;html=1;strokeColor=none;fillColor=#ffffff;align=center;verticalAlign=middle;whiteSpace=wrap;rounded=0;fontColor=#000000;" parent="I4yx5gBmCXHiHPGcrVMx-1" vertex="1">
          <mxGeometry x="472.5" y="255" width="90" height="15" as="geometry"/>
        </mxCell>
        <mxCell id="xRk7Ef4-2VAYpKH-kcGc-33" value="&lt;font style=&quot;font-size: 10px&quot;&gt;D4 ON == OK&lt;/font&gt;" style="text;html=1;strokeColor=none;fillColor=#ffffff;align=center;verticalAlign=middle;whiteSpace=wrap;rounded=0;fontColor=#000000;" parent="I4yx5gBmCXHiHPGcrVMx-1" vertex="1">
          <mxGeometry x="619.5" y="260" width="90" height="15" as="geometry"/>
        </mxCell>
        <mxCell id="xRk7Ef4-2VAYpKH-kcGc-34" value="Error" style="ellipse;whiteSpace=wrap;html=1;rounded=0;shadow=1;comic=0;labelBackgroundColor=none;strokeWidth=1;fontFamily=Verdana;fontSize=12;align=center;fillColor=#f8cecc;strokeColor=#b85450;" parent="I4yx5gBmCXHiHPGcrVMx-1" vertex="1">
          <mxGeometry x="9.5" y="180" width="75" height="50" as="geometry"/>
        </mxCell>
        <mxCell id="xRk7Ef4-2VAYpKH-kcGc-35" value="" style="curved=1;endArrow=classic;html=1;strokeColor=#B3B3B3;fontColor=#000000;exitX=1;exitY=0.5;exitDx=0;exitDy=0;entryX=0.5;entryY=0;entryDx=0;entryDy=0;" parent="I4yx5gBmCXHiHPGcrVMx-1" source="xRk7Ef4-2VAYpKH-kcGc-6" target="xRk7Ef4-2VAYpKH-kcGc-37" edge="1">
          <mxGeometry width="50" height="50" relative="1" as="geometry">
            <mxPoint x="39.5" y="370" as="sourcePoint"/>
            <mxPoint x="279.5" y="280" as="targetPoint"/>
            <Array as="points">
              <mxPoint x="249.5" y="205"/>
              <mxPoint x="269.5" y="240"/>
            </Array>
          </mxGeometry>
        </mxCell>
        <mxCell id="xRk7Ef4-2VAYpKH-kcGc-36" value="&lt;font style=&quot;font-size: 10px&quot;&gt;D1 ON == NOK&lt;/font&gt;" style="text;html=1;strokeColor=none;fillColor=#ffffff;align=center;verticalAlign=middle;whiteSpace=wrap;rounded=0;fontColor=#000000;" parent="I4yx5gBmCXHiHPGcrVMx-1" vertex="1">
          <mxGeometry x="229.5" y="240" width="80" height="20" as="geometry"/>
        </mxCell>
        <mxCell id="xRk7Ef4-2VAYpKH-kcGc-37" value="1" style="text;html=1;strokeColor=#000000;fillColor=none;align=center;verticalAlign=middle;whiteSpace=wrap;rounded=0;fontColor=#000000;" parent="I4yx5gBmCXHiHPGcrVMx-1" vertex="1">
          <mxGeometry x="259.5" y="290" width="20" height="20" as="geometry"/>
        </mxCell>
        <mxCell id="xRk7Ef4-2VAYpKH-kcGc-38" value="1" style="text;html=1;strokeColor=#000000;fillColor=none;align=center;verticalAlign=middle;whiteSpace=wrap;rounded=0;fontColor=#000000;" parent="I4yx5gBmCXHiHPGcrVMx-1" vertex="1">
          <mxGeometry x="424.5" y="290" width="20" height="20" as="geometry"/>
        </mxCell>
        <mxCell id="xRk7Ef4-2VAYpKH-kcGc-39" value="1" style="text;html=1;strokeColor=#000000;fillColor=none;align=center;verticalAlign=middle;whiteSpace=wrap;rounded=0;fontColor=#000000;" parent="I4yx5gBmCXHiHPGcrVMx-1" vertex="1">
          <mxGeometry x="589.5" y="290" width="20" height="20" as="geometry"/>
        </mxCell>
        <mxCell id="xRk7Ef4-2VAYpKH-kcGc-40" value="1" style="text;html=1;strokeColor=#000000;fillColor=none;align=center;verticalAlign=middle;whiteSpace=wrap;rounded=0;fontColor=#000000;" parent="I4yx5gBmCXHiHPGcrVMx-1" vertex="1">
          <mxGeometry x="739.5" y="290" width="20" height="20" as="geometry"/>
        </mxCell>
        <mxCell id="xRk7Ef4-2VAYpKH-kcGc-41" value="" style="curved=1;endArrow=classic;html=1;strokeColor=#B3B3B3;fontColor=#000000;entryX=0.5;entryY=0;entryDx=0;entryDy=0;exitX=1;exitY=0.5;exitDx=0;exitDy=0;" parent="I4yx5gBmCXHiHPGcrVMx-1" source="xRk7Ef4-2VAYpKH-kcGc-5" edge="1">
          <mxGeometry width="50" height="50" relative="1" as="geometry">
            <mxPoint x="387.5" y="205" as="sourcePoint"/>
            <mxPoint x="432.0000000000023" y="290" as="targetPoint"/>
            <Array as="points">
              <mxPoint x="412.0000000000023" y="205"/>
              <mxPoint x="432.0000000000023" y="240"/>
            </Array>
          </mxGeometry>
        </mxCell>
        <mxCell id="xRk7Ef4-2VAYpKH-kcGc-42" value="" style="curved=1;endArrow=classic;html=1;strokeColor=#B3B3B3;fontColor=#000000;exitX=1;exitY=0.5;exitDx=0;exitDy=0;entryX=0.5;entryY=0;entryDx=0;entryDy=0;" parent="I4yx5gBmCXHiHPGcrVMx-1" target="xRk7Ef4-2VAYpKH-kcGc-39" edge="1">
          <mxGeometry width="50" height="50" relative="1" as="geometry">
            <mxPoint x="554.5" y="207.5" as="sourcePoint"/>
            <mxPoint x="599.5000000000023" y="292.5" as="targetPoint"/>
            <Array as="points">
              <mxPoint x="579.5000000000023" y="207.5"/>
              <mxPoint x="599.5000000000023" y="242.5"/>
            </Array>
          </mxGeometry>
        </mxCell>
        <mxCell id="xRk7Ef4-2VAYpKH-kcGc-43" value="&lt;font style=&quot;font-size: 10px&quot;&gt;D2 ON == NOK&lt;/font&gt;" style="text;html=1;strokeColor=none;fillColor=#ffffff;align=center;verticalAlign=middle;whiteSpace=wrap;rounded=0;fontColor=#000000;" parent="I4yx5gBmCXHiHPGcrVMx-1" vertex="1">
          <mxGeometry x="384.5" y="235" width="80" height="20" as="geometry"/>
        </mxCell>
        <mxCell id="xRk7Ef4-2VAYpKH-kcGc-44" value="&lt;font style=&quot;font-size: 10px&quot;&gt;D3 ON == NOK&lt;/font&gt;" style="text;html=1;strokeColor=none;fillColor=#ffffff;align=center;verticalAlign=middle;whiteSpace=wrap;rounded=0;fontColor=#000000;" parent="I4yx5gBmCXHiHPGcrVMx-1" vertex="1">
          <mxGeometry x="549.5" y="235" width="80" height="20" as="geometry"/>
        </mxCell>
        <mxCell id="xRk7Ef4-2VAYpKH-kcGc-45" value="" style="curved=1;endArrow=classic;html=1;strokeColor=#B3B3B3;fontColor=#000000;exitX=1;exitY=0.5;exitDx=0;exitDy=0;entryX=0.5;entryY=0;entryDx=0;entryDy=0;" parent="I4yx5gBmCXHiHPGcrVMx-1" target="xRk7Ef4-2VAYpKH-kcGc-40" edge="1">
          <mxGeometry width="50" height="50" relative="1" as="geometry">
            <mxPoint x="704.5" y="204" as="sourcePoint"/>
            <mxPoint x="749.5" y="286.5" as="targetPoint"/>
            <Array as="points">
              <mxPoint x="729.5000000000023" y="204"/>
              <mxPoint x="749.5000000000023" y="239"/>
            </Array>
          </mxGeometry>
        </mxCell>
        <mxCell id="xRk7Ef4-2VAYpKH-kcGc-46" value="&lt;font style=&quot;font-size: 10px&quot;&gt;D4 ON == NOK&lt;/font&gt;" style="text;html=1;strokeColor=none;fillColor=#ffffff;align=center;verticalAlign=middle;whiteSpace=wrap;rounded=0;fontColor=#000000;" parent="I4yx5gBmCXHiHPGcrVMx-1" vertex="1">
          <mxGeometry x="699.5" y="235" width="80" height="20" as="geometry"/>
        </mxCell>
        <mxCell id="xRk7Ef4-2VAYpKH-kcGc-47" value="" style="curved=1;endArrow=classic;html=1;strokeColor=#B3B3B3;fontColor=#B3B3B3;exitX=0.5;exitY=1;exitDx=0;exitDy=0;" parent="I4yx5gBmCXHiHPGcrVMx-1" source="xRk7Ef4-2VAYpKH-kcGc-34" edge="1">
          <mxGeometry width="50" height="50" relative="1" as="geometry">
            <mxPoint x="46.5" y="350" as="sourcePoint"/>
            <mxPoint x="47" y="470" as="targetPoint"/>
            <Array as="points">
              <mxPoint x="47" y="360"/>
            </Array>
          </mxGeometry>
        </mxCell>
        <mxCell id="xRk7Ef4-2VAYpKH-kcGc-48" value="" style="curved=1;endArrow=classic;html=1;strokeColor=#000000;fontColor=#000000;" parent="I4yx5gBmCXHiHPGcrVMx-1" edge="1">
          <mxGeometry width="50" height="50" relative="1" as="geometry">
            <mxPoint x="47.5" y="90" as="sourcePoint"/>
            <mxPoint x="47.5" y="180" as="targetPoint"/>
            <Array as="points">
              <mxPoint x="47.5" y="140"/>
            </Array>
          </mxGeometry>
        </mxCell>
        <mxCell id="xRk7Ef4-2VAYpKH-kcGc-49" value="1" style="text;html=1;strokeColor=#000000;fillColor=none;align=center;verticalAlign=middle;whiteSpace=wrap;rounded=0;fontColor=#000000;" parent="I4yx5gBmCXHiHPGcrVMx-1" vertex="1">
          <mxGeometry x="37" y="70" width="20" height="20" as="geometry"/>
        </mxCell>
        <mxCell id="WJLJv8kYMZVWe4_tfYEZ-0" value="Nomenclature" style="swimlane;fontStyle=3;childLayout=stackLayout;horizontal=1;startSize=26;fillColor=#e0e0e0;horizontalStack=0;resizeParent=1;resizeParentMax=0;resizeLast=0;collapsible=1;marginBottom=0;swimlaneFillColor=#ffffff;align=center;fontSize=14;" parent="I4yx5gBmCXHiHPGcrVMx-1" vertex="1">
          <mxGeometry x="880" y="160" width="196" height="236" as="geometry"/>
        </mxCell>
        <mxCell id="WJLJv8kYMZVWe4_tfYEZ-3" value="No correct" style="shape=partialRectangle;top=0;left=0;right=0;bottom=1;align=left;verticalAlign=middle;fillColor=none;spacingLeft=60;spacingRight=4;overflow=hidden;rotatable=0;points=[[0,0.5],[1,0.5]];portConstraint=eastwest;dropTarget=0;fontStyle=0;fontSize=12;" parent="WJLJv8kYMZVWe4_tfYEZ-0" vertex="1">
          <mxGeometry y="26" width="196" height="30" as="geometry"/>
        </mxCell>
        <mxCell id="WJLJv8kYMZVWe4_tfYEZ-4" value="NOK" style="shape=partialRectangle;fontStyle=1;top=0;left=0;bottom=0;fillColor=none;align=left;verticalAlign=middle;spacingLeft=4;spacingRight=4;overflow=hidden;rotatable=0;points=[];portConstraint=eastwest;part=1;fontSize=12;" parent="WJLJv8kYMZVWe4_tfYEZ-3" vertex="1" connectable="0">
          <mxGeometry width="56" height="30" as="geometry"/>
        </mxCell>
        <mxCell id="WJLJv8kYMZVWe4_tfYEZ-5" value="Correct" style="shape=partialRectangle;top=0;left=0;right=0;bottom=1;align=left;verticalAlign=middle;fillColor=none;spacingLeft=60;spacingRight=4;overflow=hidden;rotatable=0;points=[[0,0.5],[1,0.5]];portConstraint=eastwest;dropTarget=0;fontStyle=0;fontSize=12;" parent="WJLJv8kYMZVWe4_tfYEZ-0" vertex="1">
          <mxGeometry y="56" width="196" height="30" as="geometry"/>
        </mxCell>
        <mxCell id="WJLJv8kYMZVWe4_tfYEZ-6" value="OK" style="shape=partialRectangle;fontStyle=1;top=0;left=0;bottom=0;fillColor=none;align=left;verticalAlign=middle;spacingLeft=4;spacingRight=4;overflow=hidden;rotatable=0;points=[];portConstraint=eastwest;part=1;fontSize=12;" parent="WJLJv8kYMZVWe4_tfYEZ-5" vertex="1" connectable="0">
          <mxGeometry width="56" height="30" as="geometry"/>
        </mxCell>
        <mxCell id="WJLJv8kYMZVWe4_tfYEZ-7" value="Count variable" style="shape=partialRectangle;top=0;left=0;right=0;bottom=1;align=left;verticalAlign=middle;fillColor=none;spacingLeft=60;spacingRight=4;overflow=hidden;rotatable=0;points=[[0,0.5],[1,0.5]];portConstraint=eastwest;dropTarget=0;fontStyle=0;fontSize=12;" parent="WJLJv8kYMZVWe4_tfYEZ-0" vertex="1">
          <mxGeometry y="86" width="196" height="30" as="geometry"/>
        </mxCell>
        <mxCell id="WJLJv8kYMZVWe4_tfYEZ-8" value="q" style="shape=partialRectangle;fontStyle=1;top=0;left=0;bottom=0;fillColor=none;align=left;verticalAlign=middle;spacingLeft=4;spacingRight=4;overflow=hidden;rotatable=0;points=[];portConstraint=eastwest;part=1;fontSize=12;" parent="WJLJv8kYMZVWe4_tfYEZ-7" vertex="1" connectable="0">
          <mxGeometry width="56" height="30" as="geometry"/>
        </mxCell>
        <mxCell id="WJLJv8kYMZVWe4_tfYEZ-9" value="Led #1 turned on" style="shape=partialRectangle;top=0;left=0;right=0;bottom=1;align=left;verticalAlign=middle;fillColor=none;spacingLeft=60;spacingRight=4;overflow=hidden;rotatable=0;points=[[0,0.5],[1,0.5]];portConstraint=eastwest;dropTarget=0;fontStyle=0;fontSize=12;" parent="WJLJv8kYMZVWe4_tfYEZ-0" vertex="1">
          <mxGeometry y="116" width="196" height="30" as="geometry"/>
        </mxCell>
        <mxCell id="WJLJv8kYMZVWe4_tfYEZ-10" value="D1 ON" style="shape=partialRectangle;fontStyle=1;top=0;left=0;bottom=0;fillColor=none;align=left;verticalAlign=middle;spacingLeft=4;spacingRight=4;overflow=hidden;rotatable=0;points=[];portConstraint=eastwest;part=1;fontSize=12;" parent="WJLJv8kYMZVWe4_tfYEZ-9" vertex="1" connectable="0">
          <mxGeometry width="56" height="30" as="geometry"/>
        </mxCell>
        <mxCell id="WJLJv8kYMZVWe4_tfYEZ-11" value="Led #2 turned on" style="shape=partialRectangle;top=0;left=0;right=0;bottom=1;align=left;verticalAlign=middle;fillColor=none;spacingLeft=60;spacingRight=4;overflow=hidden;rotatable=0;points=[[0,0.5],[1,0.5]];portConstraint=eastwest;dropTarget=0;fontStyle=0;fontSize=12;" parent="WJLJv8kYMZVWe4_tfYEZ-0" vertex="1">
          <mxGeometry y="146" width="196" height="30" as="geometry"/>
        </mxCell>
        <mxCell id="WJLJv8kYMZVWe4_tfYEZ-12" value="D2 ON" style="shape=partialRectangle;fontStyle=1;top=0;left=0;bottom=0;fillColor=none;align=left;verticalAlign=middle;spacingLeft=4;spacingRight=4;overflow=hidden;rotatable=0;points=[];portConstraint=eastwest;part=1;fontSize=12;" parent="WJLJv8kYMZVWe4_tfYEZ-11" vertex="1" connectable="0">
          <mxGeometry width="56" height="30" as="geometry"/>
        </mxCell>
        <mxCell id="UIfDMn6N0cIxxAzueiWg-0" value="Led #3 turned on" style="shape=partialRectangle;top=0;left=0;right=0;bottom=1;align=left;verticalAlign=middle;fillColor=none;spacingLeft=60;spacingRight=4;overflow=hidden;rotatable=0;points=[[0,0.5],[1,0.5]];portConstraint=eastwest;dropTarget=0;fontStyle=0;fontSize=12;" parent="WJLJv8kYMZVWe4_tfYEZ-0" vertex="1">
          <mxGeometry y="176" width="196" height="30" as="geometry"/>
        </mxCell>
        <mxCell id="UIfDMn6N0cIxxAzueiWg-1" value="D3 ON" style="shape=partialRectangle;fontStyle=1;top=0;left=0;bottom=0;fillColor=none;align=left;verticalAlign=middle;spacingLeft=4;spacingRight=4;overflow=hidden;rotatable=0;points=[];portConstraint=eastwest;part=1;fontSize=12;" parent="UIfDMn6N0cIxxAzueiWg-0" vertex="1" connectable="0">
          <mxGeometry width="56" height="30" as="geometry"/>
        </mxCell>
        <mxCell id="UIfDMn6N0cIxxAzueiWg-2" value="Led #4 turned on" style="shape=partialRectangle;top=0;left=0;right=0;bottom=1;align=left;verticalAlign=middle;fillColor=none;spacingLeft=60;spacingRight=4;overflow=hidden;rotatable=0;points=[[0,0.5],[1,0.5]];portConstraint=eastwest;dropTarget=0;fontStyle=0;fontSize=12;" parent="WJLJv8kYMZVWe4_tfYEZ-0" vertex="1">
          <mxGeometry y="206" width="196" height="30" as="geometry"/>
        </mxCell>
        <mxCell id="UIfDMn6N0cIxxAzueiWg-3" value="D4 ON" style="shape=partialRectangle;fontStyle=1;top=0;left=0;bottom=0;fillColor=none;align=left;verticalAlign=middle;spacingLeft=4;spacingRight=4;overflow=hidden;rotatable=0;points=[];portConstraint=eastwest;part=1;fontSize=12;" parent="UIfDMn6N0cIxxAzueiWg-2" vertex="1" connectable="0">
          <mxGeometry width="56" height="30" as="geometry"/>
        </mxCell>
      </root>
    </mxGraphModel>
  </diagram>
  <diagram id="aQd0sJ_nXTcxHGfsgdii" name="WindowDown">
    <mxGraphModel dx="1024" dy="534" grid="1" gridSize="10" guides="1" tooltips="1" connect="1" arrows="1" fold="1" page="1" pageScale="1" pageWidth="1100" pageHeight="500" background="#ffffff" math="0" shadow="0">
      <root>
        <mxCell id="Z5Y5gcCnZi93HLh1GYUd-0"/>
        <mxCell id="Z5Y5gcCnZi93HLh1GYUd-1" parent="Z5Y5gcCnZi93HLh1GYUd-0"/>
        <mxCell id="Z5Y5gcCnZi93HLh1GYUd-2" value="Selector" style="ellipse;whiteSpace=wrap;html=1;rounded=0;shadow=1;comic=0;labelBackgroundColor=none;strokeWidth=1;fontFamily=Verdana;fontSize=12;align=center;fillColor=#e1d5e7;strokeColor=#9673a6;" parent="Z5Y5gcCnZi93HLh1GYUd-1" vertex="1">
          <mxGeometry x="389" y="49" width="90" height="60" as="geometry"/>
        </mxCell>
        <mxCell id="Z5Y5gcCnZi93HLh1GYUd-3" value="D3 OFF" style="ellipse;whiteSpace=wrap;html=1;rounded=0;shadow=1;comic=0;labelBackgroundColor=none;strokeWidth=1;fontFamily=Verdana;fontSize=12;align=center;fillColor=#dae8fc;strokeColor=#6c8ebf;" parent="Z5Y5gcCnZi93HLh1GYUd-1" vertex="1">
          <mxGeometry x="489" y="169" width="75" height="50" as="geometry"/>
        </mxCell>
        <mxCell id="Z5Y5gcCnZi93HLh1GYUd-4" value="D4 OFF" style="ellipse;whiteSpace=wrap;html=1;rounded=0;shadow=1;comic=0;labelBackgroundColor=none;strokeWidth=1;fontFamily=Verdana;fontSize=12;align=center;fillColor=#dae8fc;strokeColor=#6c8ebf;" parent="Z5Y5gcCnZi93HLh1GYUd-1" vertex="1">
          <mxGeometry x="639" y="169" width="75" height="50" as="geometry"/>
        </mxCell>
        <mxCell id="Z5Y5gcCnZi93HLh1GYUd-5" value="q--" style="ellipse;whiteSpace=wrap;html=1;rounded=0;shadow=1;comic=0;labelBackgroundColor=none;strokeWidth=1;fontFamily=Verdana;fontSize=12;align=center;fillColor=#fff2cc;strokeColor=#d6b656;" parent="Z5Y5gcCnZi93HLh1GYUd-1" vertex="1">
          <mxGeometry x="639" y="289" width="75" height="50" as="geometry"/>
        </mxCell>
        <mxCell id="Z5Y5gcCnZi93HLh1GYUd-6" value="q--" style="ellipse;whiteSpace=wrap;html=1;rounded=0;shadow=1;comic=0;labelBackgroundColor=none;strokeWidth=1;fontFamily=Verdana;fontSize=12;align=center;fillColor=#fff2cc;strokeColor=#d6b656;" parent="Z5Y5gcCnZi93HLh1GYUd-1" vertex="1">
          <mxGeometry x="489" y="289" width="75" height="50" as="geometry"/>
        </mxCell>
        <mxCell id="Z5Y5gcCnZi93HLh1GYUd-7" value="D2 OFF&amp;nbsp;" style="ellipse;whiteSpace=wrap;html=1;rounded=0;shadow=1;comic=0;labelBackgroundColor=none;strokeWidth=1;fontFamily=Verdana;fontSize=12;align=center;fillColor=#dae8fc;strokeColor=#6c8ebf;" parent="Z5Y5gcCnZi93HLh1GYUd-1" vertex="1">
          <mxGeometry x="319" y="169" width="75" height="50" as="geometry"/>
        </mxCell>
        <mxCell id="Z5Y5gcCnZi93HLh1GYUd-8" value="D1 OFF&amp;nbsp;" style="ellipse;whiteSpace=wrap;html=1;rounded=0;shadow=1;comic=0;labelBackgroundColor=none;strokeWidth=1;fontFamily=Verdana;fontSize=12;align=center;fillColor=#dae8fc;strokeColor=#6c8ebf;" parent="Z5Y5gcCnZi93HLh1GYUd-1" vertex="1">
          <mxGeometry x="159" y="169" width="75" height="50" as="geometry"/>
        </mxCell>
        <mxCell id="Z5Y5gcCnZi93HLh1GYUd-9" value="q--" style="ellipse;whiteSpace=wrap;html=1;rounded=0;shadow=1;comic=0;labelBackgroundColor=none;strokeWidth=1;fontFamily=Verdana;fontSize=12;align=center;fillColor=#fff2cc;strokeColor=#d6b656;" parent="Z5Y5gcCnZi93HLh1GYUd-1" vertex="1">
          <mxGeometry x="159" y="289" width="75" height="50" as="geometry"/>
        </mxCell>
        <mxCell id="Z5Y5gcCnZi93HLh1GYUd-10" value="q--" style="ellipse;whiteSpace=wrap;html=1;rounded=0;shadow=1;comic=0;labelBackgroundColor=none;strokeWidth=1;fontFamily=Verdana;fontSize=12;align=center;fillColor=#fff2cc;strokeColor=#d6b656;" parent="Z5Y5gcCnZi93HLh1GYUd-1" vertex="1">
          <mxGeometry x="319" y="289" width="75" height="50" as="geometry"/>
        </mxCell>
        <mxCell id="Z5Y5gcCnZi93HLh1GYUd-11" value="Do Nothing" style="rounded=0;whiteSpace=wrap;html=1;fillColor=#d5e8d4;strokeColor=#82b366;" parent="Z5Y5gcCnZi93HLh1GYUd-1" vertex="1">
          <mxGeometry x="739" y="99" width="105" height="30" as="geometry"/>
        </mxCell>
        <mxCell id="Z5Y5gcCnZi93HLh1GYUd-12" value="" style="curved=1;endArrow=classic;html=1;fontColor=#B3B3B3;entryX=0.5;entryY=0;entryDx=0;entryDy=0;exitX=0;exitY=0.5;exitDx=0;exitDy=0;strokeColor=#B3B3B3;" parent="Z5Y5gcCnZi93HLh1GYUd-1" source="Z5Y5gcCnZi93HLh1GYUd-2" target="Z5Y5gcCnZi93HLh1GYUd-8" edge="1">
          <mxGeometry width="50" height="50" relative="1" as="geometry">
            <mxPoint x="294" y="119" as="sourcePoint"/>
            <mxPoint x="344" y="69" as="targetPoint"/>
            <Array as="points">
              <mxPoint x="249" y="109"/>
            </Array>
          </mxGeometry>
        </mxCell>
        <mxCell id="Z5Y5gcCnZi93HLh1GYUd-13" value="" style="curved=1;endArrow=classic;html=1;strokeColor=#B3B3B3;fontColor=#B3B3B3;exitX=0;exitY=1;exitDx=0;exitDy=0;entryX=0.5;entryY=0;entryDx=0;entryDy=0;" parent="Z5Y5gcCnZi93HLh1GYUd-1" source="Z5Y5gcCnZi93HLh1GYUd-2" target="Z5Y5gcCnZi93HLh1GYUd-7" edge="1">
          <mxGeometry width="50" height="50" relative="1" as="geometry">
            <mxPoint x="416.5" y="189" as="sourcePoint"/>
            <mxPoint x="466.5" y="139" as="targetPoint"/>
            <Array as="points">
              <mxPoint x="389" y="129"/>
            </Array>
          </mxGeometry>
        </mxCell>
        <mxCell id="Z5Y5gcCnZi93HLh1GYUd-14" value="" style="curved=1;endArrow=classic;html=1;strokeColor=#B3B3B3;fontColor=#B3B3B3;exitX=1;exitY=1;exitDx=0;exitDy=0;entryX=0.5;entryY=0;entryDx=0;entryDy=0;" parent="Z5Y5gcCnZi93HLh1GYUd-1" source="Z5Y5gcCnZi93HLh1GYUd-2" target="Z5Y5gcCnZi93HLh1GYUd-3" edge="1">
          <mxGeometry width="50" height="50" relative="1" as="geometry">
            <mxPoint x="539" y="129" as="sourcePoint"/>
            <mxPoint x="589" y="79" as="targetPoint"/>
            <Array as="points">
              <mxPoint x="479" y="129"/>
            </Array>
          </mxGeometry>
        </mxCell>
        <mxCell id="Z5Y5gcCnZi93HLh1GYUd-15" value="" style="curved=1;endArrow=classic;html=1;strokeColor=#B3B3B3;fontColor=#B3B3B3;exitX=1;exitY=0.5;exitDx=0;exitDy=0;entryX=0.5;entryY=0;entryDx=0;entryDy=0;" parent="Z5Y5gcCnZi93HLh1GYUd-1" source="Z5Y5gcCnZi93HLh1GYUd-2" target="Z5Y5gcCnZi93HLh1GYUd-4" edge="1">
          <mxGeometry width="50" height="50" relative="1" as="geometry">
            <mxPoint x="559" y="119" as="sourcePoint"/>
            <mxPoint x="609" y="69" as="targetPoint"/>
            <Array as="points">
              <mxPoint x="609" y="119"/>
            </Array>
          </mxGeometry>
        </mxCell>
        <mxCell id="Z5Y5gcCnZi93HLh1GYUd-16" value="" style="curved=1;endArrow=classic;html=1;strokeColor=#B3B3B3;fontColor=#B3B3B3;exitX=1;exitY=0;exitDx=0;exitDy=0;entryX=0.5;entryY=0;entryDx=0;entryDy=0;" parent="Z5Y5gcCnZi93HLh1GYUd-1" source="Z5Y5gcCnZi93HLh1GYUd-2" target="Z5Y5gcCnZi93HLh1GYUd-11" edge="1">
          <mxGeometry width="50" height="50" relative="1" as="geometry">
            <mxPoint x="609" y="94" as="sourcePoint"/>
            <mxPoint x="659" y="44" as="targetPoint"/>
            <Array as="points">
              <mxPoint x="609" y="39"/>
            </Array>
          </mxGeometry>
        </mxCell>
        <mxCell id="Z5Y5gcCnZi93HLh1GYUd-17" value="" style="curved=1;endArrow=classic;html=1;strokeColor=#B3B3B3;fontColor=#B3B3B3;entryX=0.5;entryY=0;entryDx=0;entryDy=0;exitX=0.5;exitY=1;exitDx=0;exitDy=0;" parent="Z5Y5gcCnZi93HLh1GYUd-1" source="Z5Y5gcCnZi93HLh1GYUd-8" target="Z5Y5gcCnZi93HLh1GYUd-9" edge="1">
          <mxGeometry width="50" height="50" relative="1" as="geometry">
            <mxPoint x="159" y="409" as="sourcePoint"/>
            <mxPoint x="209" y="359" as="targetPoint"/>
            <Array as="points">
              <mxPoint x="199" y="239"/>
            </Array>
          </mxGeometry>
        </mxCell>
        <mxCell id="Z5Y5gcCnZi93HLh1GYUd-18" value="" style="curved=1;endArrow=classic;html=1;strokeColor=#B3B3B3;fontColor=#B3B3B3;exitX=0.5;exitY=1;exitDx=0;exitDy=0;entryX=0.5;entryY=0;entryDx=0;entryDy=0;" parent="Z5Y5gcCnZi93HLh1GYUd-1" source="Z5Y5gcCnZi93HLh1GYUd-7" target="Z5Y5gcCnZi93HLh1GYUd-10" edge="1">
          <mxGeometry width="50" height="50" relative="1" as="geometry">
            <mxPoint x="364" y="279" as="sourcePoint"/>
            <mxPoint x="414" y="229" as="targetPoint"/>
            <Array as="points">
              <mxPoint x="357" y="249"/>
            </Array>
          </mxGeometry>
        </mxCell>
        <mxCell id="Z5Y5gcCnZi93HLh1GYUd-19" value="" style="curved=1;endArrow=classic;html=1;strokeColor=#B3B3B3;fontColor=#B3B3B3;exitX=0.5;exitY=1;exitDx=0;exitDy=0;entryX=0.5;entryY=0;entryDx=0;entryDy=0;" parent="Z5Y5gcCnZi93HLh1GYUd-1" source="Z5Y5gcCnZi93HLh1GYUd-3" target="Z5Y5gcCnZi93HLh1GYUd-6" edge="1">
          <mxGeometry width="50" height="50" relative="1" as="geometry">
            <mxPoint x="429" y="249" as="sourcePoint"/>
            <mxPoint x="429" y="319" as="targetPoint"/>
            <Array as="points"/>
          </mxGeometry>
        </mxCell>
        <mxCell id="Z5Y5gcCnZi93HLh1GYUd-20" value="" style="curved=1;endArrow=classic;html=1;strokeColor=#B3B3B3;fontColor=#B3B3B3;entryX=0.5;entryY=0;entryDx=0;entryDy=0;exitX=0.5;exitY=1;exitDx=0;exitDy=0;" parent="Z5Y5gcCnZi93HLh1GYUd-1" source="Z5Y5gcCnZi93HLh1GYUd-4" target="Z5Y5gcCnZi93HLh1GYUd-5" edge="1">
          <mxGeometry width="50" height="50" relative="1" as="geometry">
            <mxPoint x="689" y="239" as="sourcePoint"/>
            <mxPoint x="719" y="319" as="targetPoint"/>
            <Array as="points"/>
          </mxGeometry>
        </mxCell>
        <mxCell id="Z5Y5gcCnZi93HLh1GYUd-21" value="" style="curved=1;endArrow=classic;html=1;strokeColor=#B3B3B3;fontColor=#B3B3B3;exitX=0.5;exitY=1;exitDx=0;exitDy=0;" parent="Z5Y5gcCnZi93HLh1GYUd-1" source="Z5Y5gcCnZi93HLh1GYUd-9" edge="1">
          <mxGeometry width="50" height="50" relative="1" as="geometry">
            <mxPoint x="179" y="409" as="sourcePoint"/>
            <mxPoint x="197" y="459" as="targetPoint"/>
            <Array as="points">
              <mxPoint x="197" y="349"/>
            </Array>
          </mxGeometry>
        </mxCell>
        <mxCell id="Z5Y5gcCnZi93HLh1GYUd-22" value="" style="curved=1;endArrow=classic;html=1;strokeColor=#B3B3B3;fontColor=#B3B3B3;exitX=0.5;exitY=1;exitDx=0;exitDy=0;" parent="Z5Y5gcCnZi93HLh1GYUd-1" edge="1">
          <mxGeometry width="50" height="50" relative="1" as="geometry">
            <mxPoint x="356.5" y="339" as="sourcePoint"/>
            <mxPoint x="357" y="459" as="targetPoint"/>
            <Array as="points">
              <mxPoint x="357" y="349"/>
            </Array>
          </mxGeometry>
        </mxCell>
        <mxCell id="Z5Y5gcCnZi93HLh1GYUd-23" value="" style="curved=1;endArrow=classic;html=1;strokeColor=#B3B3B3;fontColor=#B3B3B3;exitX=0.5;exitY=1;exitDx=0;exitDy=0;" parent="Z5Y5gcCnZi93HLh1GYUd-1" edge="1">
          <mxGeometry width="50" height="50" relative="1" as="geometry">
            <mxPoint x="526" y="339" as="sourcePoint"/>
            <mxPoint x="526.5" y="459" as="targetPoint"/>
            <Array as="points">
              <mxPoint x="526.5" y="349"/>
            </Array>
          </mxGeometry>
        </mxCell>
        <mxCell id="Z5Y5gcCnZi93HLh1GYUd-24" value="" style="curved=1;endArrow=classic;html=1;strokeColor=#B3B3B3;fontColor=#B3B3B3;exitX=0.5;exitY=1;exitDx=0;exitDy=0;" parent="Z5Y5gcCnZi93HLh1GYUd-1" edge="1">
          <mxGeometry width="50" height="50" relative="1" as="geometry">
            <mxPoint x="676.5" y="339" as="sourcePoint"/>
            <mxPoint x="677" y="459" as="targetPoint"/>
            <Array as="points">
              <mxPoint x="677" y="349"/>
            </Array>
          </mxGeometry>
        </mxCell>
        <mxCell id="Z5Y5gcCnZi93HLh1GYUd-25" value="" style="curved=1;endArrow=classic;html=1;strokeColor=#B3B3B3;fontColor=#B3B3B3;exitX=0.5;exitY=1;exitDx=0;exitDy=0;" parent="Z5Y5gcCnZi93HLh1GYUd-1" source="Z5Y5gcCnZi93HLh1GYUd-11" edge="1">
          <mxGeometry width="50" height="50" relative="1" as="geometry">
            <mxPoint x="789" y="329" as="sourcePoint"/>
            <mxPoint x="790" y="459" as="targetPoint"/>
            <Array as="points"/>
          </mxGeometry>
        </mxCell>
        <mxCell id="Z5Y5gcCnZi93HLh1GYUd-26" value="" style="curved=1;endArrow=classic;html=1;strokeColor=#B3B3B3;fontColor=#B3B3B3;" parent="Z5Y5gcCnZi93HLh1GYUd-1" edge="1">
          <mxGeometry width="50" height="50" relative="1" as="geometry">
            <mxPoint x="59" y="459" as="sourcePoint"/>
            <mxPoint x="849" y="459" as="targetPoint"/>
            <Array as="points">
              <mxPoint x="529" y="459"/>
            </Array>
          </mxGeometry>
        </mxCell>
        <mxCell id="Z5Y5gcCnZi93HLh1GYUd-27" value="q == 1" style="text;html=1;strokeColor=none;fillColor=#ffffff;align=center;verticalAlign=middle;whiteSpace=wrap;rounded=0;fontColor=#000000;" parent="Z5Y5gcCnZi93HLh1GYUd-1" vertex="1">
          <mxGeometry x="259" y="99" width="40" height="20" as="geometry"/>
        </mxCell>
        <mxCell id="Z5Y5gcCnZi93HLh1GYUd-28" value="q == 2" style="text;html=1;strokeColor=none;fillColor=#ffffff;align=center;verticalAlign=middle;whiteSpace=wrap;rounded=0;fontColor=#000000;" parent="Z5Y5gcCnZi93HLh1GYUd-1" vertex="1">
          <mxGeometry x="356.5" y="119" width="40" height="20" as="geometry"/>
        </mxCell>
        <mxCell id="Z5Y5gcCnZi93HLh1GYUd-29" value="q == 3" style="text;html=1;strokeColor=none;fillColor=#ffffff;align=center;verticalAlign=middle;whiteSpace=wrap;rounded=0;fontColor=#000000;" parent="Z5Y5gcCnZi93HLh1GYUd-1" vertex="1">
          <mxGeometry x="469" y="129" width="40" height="20" as="geometry"/>
        </mxCell>
        <mxCell id="Z5Y5gcCnZi93HLh1GYUd-30" value="q == 4" style="text;html=1;strokeColor=none;fillColor=#ffffff;align=center;verticalAlign=middle;whiteSpace=wrap;rounded=0;fontColor=#000000;" parent="Z5Y5gcCnZi93HLh1GYUd-1" vertex="1">
          <mxGeometry x="579" y="109" width="40" height="20" as="geometry"/>
        </mxCell>
        <mxCell id="Z5Y5gcCnZi93HLh1GYUd-31" value="q &amp;lt;= 4" style="text;html=1;strokeColor=none;fillColor=#ffffff;align=center;verticalAlign=middle;whiteSpace=wrap;rounded=0;fontColor=#000000;" parent="Z5Y5gcCnZi93HLh1GYUd-1" vertex="1">
          <mxGeometry x="589" y="49" width="40" height="20" as="geometry"/>
        </mxCell>
        <mxCell id="Z5Y5gcCnZi93HLh1GYUd-32" value="&lt;font style=&quot;font-size: 10px&quot;&gt;D1 OFF == OK&lt;/font&gt;" style="text;html=1;strokeColor=none;fillColor=#ffffff;align=center;verticalAlign=middle;whiteSpace=wrap;rounded=0;fontColor=#000000;" parent="Z5Y5gcCnZi93HLh1GYUd-1" vertex="1">
          <mxGeometry x="151.5" y="239" width="90" height="20" as="geometry"/>
        </mxCell>
        <mxCell id="Z5Y5gcCnZi93HLh1GYUd-33" value="&lt;font style=&quot;font-size: 10px&quot;&gt;D2 OFF == OK&lt;/font&gt;" style="text;html=1;strokeColor=none;fillColor=#ffffff;align=center;verticalAlign=middle;whiteSpace=wrap;rounded=0;fontColor=#000000;" parent="Z5Y5gcCnZi93HLh1GYUd-1" vertex="1">
          <mxGeometry x="311.5" y="239" width="90" height="20" as="geometry"/>
        </mxCell>
        <mxCell id="Z5Y5gcCnZi93HLh1GYUd-34" value="&lt;font style=&quot;font-size: 10px&quot;&gt;D3&amp;nbsp;OFF == OK&lt;/font&gt;" style="text;html=1;strokeColor=none;fillColor=#ffffff;align=center;verticalAlign=middle;whiteSpace=wrap;rounded=0;fontColor=#000000;" parent="Z5Y5gcCnZi93HLh1GYUd-1" vertex="1">
          <mxGeometry x="482" y="244" width="90" height="15" as="geometry"/>
        </mxCell>
        <mxCell id="Z5Y5gcCnZi93HLh1GYUd-35" value="&lt;font style=&quot;font-size: 10px&quot;&gt;D4 OFF == OK&lt;/font&gt;" style="text;html=1;strokeColor=none;fillColor=#ffffff;align=center;verticalAlign=middle;whiteSpace=wrap;rounded=0;fontColor=#000000;" parent="Z5Y5gcCnZi93HLh1GYUd-1" vertex="1">
          <mxGeometry x="629" y="249" width="90" height="15" as="geometry"/>
        </mxCell>
        <mxCell id="Z5Y5gcCnZi93HLh1GYUd-36" value="Error" style="ellipse;whiteSpace=wrap;html=1;rounded=0;shadow=1;comic=0;labelBackgroundColor=none;strokeWidth=1;fontFamily=Verdana;fontSize=12;align=center;fillColor=#f8cecc;strokeColor=#b85450;" parent="Z5Y5gcCnZi93HLh1GYUd-1" vertex="1">
          <mxGeometry x="19" y="169" width="75" height="50" as="geometry"/>
        </mxCell>
        <mxCell id="Z5Y5gcCnZi93HLh1GYUd-37" value="" style="curved=1;endArrow=classic;html=1;strokeColor=#B3B3B3;fontColor=#000000;exitX=1;exitY=0.5;exitDx=0;exitDy=0;entryX=0.5;entryY=0;entryDx=0;entryDy=0;" parent="Z5Y5gcCnZi93HLh1GYUd-1" source="Z5Y5gcCnZi93HLh1GYUd-8" target="Z5Y5gcCnZi93HLh1GYUd-39" edge="1">
          <mxGeometry width="50" height="50" relative="1" as="geometry">
            <mxPoint x="49" y="359" as="sourcePoint"/>
            <mxPoint x="289" y="269" as="targetPoint"/>
            <Array as="points">
              <mxPoint x="259" y="194"/>
              <mxPoint x="279" y="229"/>
            </Array>
          </mxGeometry>
        </mxCell>
        <mxCell id="Z5Y5gcCnZi93HLh1GYUd-38" value="&lt;font style=&quot;font-size: 10px&quot;&gt;D1 OFF == NOK&lt;/font&gt;" style="text;html=1;strokeColor=none;fillColor=#ffffff;align=center;verticalAlign=middle;whiteSpace=wrap;rounded=0;fontColor=#000000;" parent="Z5Y5gcCnZi93HLh1GYUd-1" vertex="1">
          <mxGeometry x="239" y="229" width="80" height="20" as="geometry"/>
        </mxCell>
        <mxCell id="Z5Y5gcCnZi93HLh1GYUd-39" value="1" style="text;html=1;strokeColor=#000000;fillColor=none;align=center;verticalAlign=middle;whiteSpace=wrap;rounded=0;fontColor=#000000;" parent="Z5Y5gcCnZi93HLh1GYUd-1" vertex="1">
          <mxGeometry x="269" y="279" width="20" height="20" as="geometry"/>
        </mxCell>
        <mxCell id="Z5Y5gcCnZi93HLh1GYUd-40" value="1" style="text;html=1;strokeColor=#000000;fillColor=none;align=center;verticalAlign=middle;whiteSpace=wrap;rounded=0;fontColor=#000000;" parent="Z5Y5gcCnZi93HLh1GYUd-1" vertex="1">
          <mxGeometry x="434" y="279" width="20" height="20" as="geometry"/>
        </mxCell>
        <mxCell id="Z5Y5gcCnZi93HLh1GYUd-41" value="1" style="text;html=1;strokeColor=#000000;fillColor=none;align=center;verticalAlign=middle;whiteSpace=wrap;rounded=0;fontColor=#000000;" parent="Z5Y5gcCnZi93HLh1GYUd-1" vertex="1">
          <mxGeometry x="599" y="279" width="20" height="20" as="geometry"/>
        </mxCell>
        <mxCell id="Z5Y5gcCnZi93HLh1GYUd-42" value="1" style="text;html=1;strokeColor=#000000;fillColor=none;align=center;verticalAlign=middle;whiteSpace=wrap;rounded=0;fontColor=#000000;" parent="Z5Y5gcCnZi93HLh1GYUd-1" vertex="1">
          <mxGeometry x="749" y="279" width="20" height="20" as="geometry"/>
        </mxCell>
        <mxCell id="Z5Y5gcCnZi93HLh1GYUd-43" value="" style="curved=1;endArrow=classic;html=1;strokeColor=#B3B3B3;fontColor=#000000;entryX=0.5;entryY=0;entryDx=0;entryDy=0;exitX=1;exitY=0.5;exitDx=0;exitDy=0;" parent="Z5Y5gcCnZi93HLh1GYUd-1" source="Z5Y5gcCnZi93HLh1GYUd-7" edge="1">
          <mxGeometry width="50" height="50" relative="1" as="geometry">
            <mxPoint x="397" y="194" as="sourcePoint"/>
            <mxPoint x="441.5000000000023" y="279" as="targetPoint"/>
            <Array as="points">
              <mxPoint x="421.5000000000023" y="194"/>
              <mxPoint x="441.5000000000023" y="229"/>
            </Array>
          </mxGeometry>
        </mxCell>
        <mxCell id="Z5Y5gcCnZi93HLh1GYUd-44" value="" style="curved=1;endArrow=classic;html=1;strokeColor=#B3B3B3;fontColor=#000000;exitX=1;exitY=0.5;exitDx=0;exitDy=0;entryX=0.5;entryY=0;entryDx=0;entryDy=0;" parent="Z5Y5gcCnZi93HLh1GYUd-1" target="Z5Y5gcCnZi93HLh1GYUd-41" edge="1">
          <mxGeometry width="50" height="50" relative="1" as="geometry">
            <mxPoint x="564" y="196.5" as="sourcePoint"/>
            <mxPoint x="609.0000000000023" y="281.5" as="targetPoint"/>
            <Array as="points">
              <mxPoint x="589.0000000000023" y="196.5"/>
              <mxPoint x="609.0000000000023" y="231.5"/>
            </Array>
          </mxGeometry>
        </mxCell>
        <mxCell id="Z5Y5gcCnZi93HLh1GYUd-45" value="&lt;font style=&quot;font-size: 10px&quot;&gt;D2 OFF == NOK&lt;/font&gt;" style="text;html=1;strokeColor=none;fillColor=#ffffff;align=center;verticalAlign=middle;whiteSpace=wrap;rounded=0;fontColor=#000000;" parent="Z5Y5gcCnZi93HLh1GYUd-1" vertex="1">
          <mxGeometry x="394" y="224" width="80" height="20" as="geometry"/>
        </mxCell>
        <mxCell id="Z5Y5gcCnZi93HLh1GYUd-46" value="&lt;font style=&quot;font-size: 10px&quot;&gt;D3 OFF == NOK&lt;/font&gt;" style="text;html=1;strokeColor=none;fillColor=#ffffff;align=center;verticalAlign=middle;whiteSpace=wrap;rounded=0;fontColor=#000000;" parent="Z5Y5gcCnZi93HLh1GYUd-1" vertex="1">
          <mxGeometry x="559" y="224" width="80" height="20" as="geometry"/>
        </mxCell>
        <mxCell id="Z5Y5gcCnZi93HLh1GYUd-47" value="" style="curved=1;endArrow=classic;html=1;strokeColor=#B3B3B3;fontColor=#000000;exitX=1;exitY=0.5;exitDx=0;exitDy=0;entryX=0.5;entryY=0;entryDx=0;entryDy=0;" parent="Z5Y5gcCnZi93HLh1GYUd-1" target="Z5Y5gcCnZi93HLh1GYUd-42" edge="1">
          <mxGeometry width="50" height="50" relative="1" as="geometry">
            <mxPoint x="714" y="193" as="sourcePoint"/>
            <mxPoint x="759" y="275.5" as="targetPoint"/>
            <Array as="points">
              <mxPoint x="739.0000000000023" y="193"/>
              <mxPoint x="759.0000000000023" y="228"/>
            </Array>
          </mxGeometry>
        </mxCell>
        <mxCell id="Z5Y5gcCnZi93HLh1GYUd-48" value="&lt;font style=&quot;font-size: 10px&quot;&gt;D4 OFF == NOK&lt;/font&gt;" style="text;html=1;strokeColor=none;fillColor=#ffffff;align=center;verticalAlign=middle;whiteSpace=wrap;rounded=0;fontColor=#000000;" parent="Z5Y5gcCnZi93HLh1GYUd-1" vertex="1">
          <mxGeometry x="709" y="224" width="80" height="20" as="geometry"/>
        </mxCell>
        <mxCell id="Z5Y5gcCnZi93HLh1GYUd-49" value="" style="curved=1;endArrow=classic;html=1;strokeColor=#B3B3B3;fontColor=#B3B3B3;exitX=0.5;exitY=1;exitDx=0;exitDy=0;" parent="Z5Y5gcCnZi93HLh1GYUd-1" source="Z5Y5gcCnZi93HLh1GYUd-36" edge="1">
          <mxGeometry width="50" height="50" relative="1" as="geometry">
            <mxPoint x="56" y="339" as="sourcePoint"/>
            <mxPoint x="56.5" y="459" as="targetPoint"/>
            <Array as="points">
              <mxPoint x="56.5" y="349"/>
            </Array>
          </mxGeometry>
        </mxCell>
        <mxCell id="Z5Y5gcCnZi93HLh1GYUd-50" value="" style="curved=1;endArrow=classic;html=1;strokeColor=#000000;fontColor=#000000;" parent="Z5Y5gcCnZi93HLh1GYUd-1" edge="1">
          <mxGeometry width="50" height="50" relative="1" as="geometry">
            <mxPoint x="57" y="79" as="sourcePoint"/>
            <mxPoint x="57" y="169" as="targetPoint"/>
            <Array as="points">
              <mxPoint x="57" y="129"/>
            </Array>
          </mxGeometry>
        </mxCell>
        <mxCell id="Z5Y5gcCnZi93HLh1GYUd-51" value="1" style="text;html=1;strokeColor=#000000;fillColor=none;align=center;verticalAlign=middle;whiteSpace=wrap;rounded=0;fontColor=#000000;" parent="Z5Y5gcCnZi93HLh1GYUd-1" vertex="1">
          <mxGeometry x="46.5" y="59" width="20" height="20" as="geometry"/>
        </mxCell>
        <mxCell id="3t5aelclNXZ5yzzpy6F1-0" value="Nomenclature" style="swimlane;fontStyle=3;childLayout=stackLayout;horizontal=1;startSize=26;fillColor=#e0e0e0;horizontalStack=0;resizeParent=1;resizeParentMax=0;resizeLast=0;collapsible=1;marginBottom=0;swimlaneFillColor=#ffffff;align=center;fontSize=14;" parent="Z5Y5gcCnZi93HLh1GYUd-1" vertex="1">
          <mxGeometry x="880" y="169" width="196" height="236" as="geometry"/>
        </mxCell>
        <mxCell id="3t5aelclNXZ5yzzpy6F1-1" value="No correct" style="shape=partialRectangle;top=0;left=0;right=0;bottom=1;align=left;verticalAlign=middle;fillColor=none;spacingLeft=60;spacingRight=4;overflow=hidden;rotatable=0;points=[[0,0.5],[1,0.5]];portConstraint=eastwest;dropTarget=0;fontStyle=0;fontSize=12;" parent="3t5aelclNXZ5yzzpy6F1-0" vertex="1">
          <mxGeometry y="26" width="196" height="30" as="geometry"/>
        </mxCell>
        <mxCell id="3t5aelclNXZ5yzzpy6F1-2" value="NOK" style="shape=partialRectangle;fontStyle=1;top=0;left=0;bottom=0;fillColor=none;align=left;verticalAlign=middle;spacingLeft=4;spacingRight=4;overflow=hidden;rotatable=0;points=[];portConstraint=eastwest;part=1;fontSize=12;" parent="3t5aelclNXZ5yzzpy6F1-1" vertex="1" connectable="0">
          <mxGeometry width="56" height="30" as="geometry"/>
        </mxCell>
        <mxCell id="3t5aelclNXZ5yzzpy6F1-3" value="Correct" style="shape=partialRectangle;top=0;left=0;right=0;bottom=1;align=left;verticalAlign=middle;fillColor=none;spacingLeft=60;spacingRight=4;overflow=hidden;rotatable=0;points=[[0,0.5],[1,0.5]];portConstraint=eastwest;dropTarget=0;fontStyle=0;fontSize=12;" parent="3t5aelclNXZ5yzzpy6F1-0" vertex="1">
          <mxGeometry y="56" width="196" height="30" as="geometry"/>
        </mxCell>
        <mxCell id="3t5aelclNXZ5yzzpy6F1-4" value="OK" style="shape=partialRectangle;fontStyle=1;top=0;left=0;bottom=0;fillColor=none;align=left;verticalAlign=middle;spacingLeft=4;spacingRight=4;overflow=hidden;rotatable=0;points=[];portConstraint=eastwest;part=1;fontSize=12;" parent="3t5aelclNXZ5yzzpy6F1-3" vertex="1" connectable="0">
          <mxGeometry width="56" height="30" as="geometry"/>
        </mxCell>
        <mxCell id="3t5aelclNXZ5yzzpy6F1-5" value="Count variable" style="shape=partialRectangle;top=0;left=0;right=0;bottom=1;align=left;verticalAlign=middle;fillColor=none;spacingLeft=60;spacingRight=4;overflow=hidden;rotatable=0;points=[[0,0.5],[1,0.5]];portConstraint=eastwest;dropTarget=0;fontStyle=0;fontSize=12;" parent="3t5aelclNXZ5yzzpy6F1-0" vertex="1">
          <mxGeometry y="86" width="196" height="30" as="geometry"/>
        </mxCell>
        <mxCell id="3t5aelclNXZ5yzzpy6F1-6" value="q" style="shape=partialRectangle;fontStyle=1;top=0;left=0;bottom=0;fillColor=none;align=left;verticalAlign=middle;spacingLeft=4;spacingRight=4;overflow=hidden;rotatable=0;points=[];portConstraint=eastwest;part=1;fontSize=12;" parent="3t5aelclNXZ5yzzpy6F1-5" vertex="1" connectable="0">
          <mxGeometry width="56" height="30" as="geometry"/>
        </mxCell>
        <mxCell id="3t5aelclNXZ5yzzpy6F1-7" value="Led #1 turned off" style="shape=partialRectangle;top=0;left=0;right=0;bottom=1;align=left;verticalAlign=middle;fillColor=none;spacingLeft=60;spacingRight=4;overflow=hidden;rotatable=0;points=[[0,0.5],[1,0.5]];portConstraint=eastwest;dropTarget=0;fontStyle=0;fontSize=12;" parent="3t5aelclNXZ5yzzpy6F1-0" vertex="1">
          <mxGeometry y="116" width="196" height="30" as="geometry"/>
        </mxCell>
        <mxCell id="3t5aelclNXZ5yzzpy6F1-8" value="D1 OFF" style="shape=partialRectangle;fontStyle=1;top=0;left=0;bottom=0;fillColor=none;align=left;verticalAlign=middle;spacingLeft=4;spacingRight=4;overflow=hidden;rotatable=0;points=[];portConstraint=eastwest;part=1;fontSize=12;" parent="3t5aelclNXZ5yzzpy6F1-7" vertex="1" connectable="0">
          <mxGeometry width="56" height="30" as="geometry"/>
        </mxCell>
        <mxCell id="3t5aelclNXZ5yzzpy6F1-9" value="Led #2 turned off" style="shape=partialRectangle;top=0;left=0;right=0;bottom=1;align=left;verticalAlign=middle;fillColor=none;spacingLeft=60;spacingRight=4;overflow=hidden;rotatable=0;points=[[0,0.5],[1,0.5]];portConstraint=eastwest;dropTarget=0;fontStyle=0;fontSize=12;" parent="3t5aelclNXZ5yzzpy6F1-0" vertex="1">
          <mxGeometry y="146" width="196" height="30" as="geometry"/>
        </mxCell>
        <mxCell id="3t5aelclNXZ5yzzpy6F1-10" value="D2 OFF" style="shape=partialRectangle;fontStyle=1;top=0;left=0;bottom=0;fillColor=none;align=left;verticalAlign=middle;spacingLeft=4;spacingRight=4;overflow=hidden;rotatable=0;points=[];portConstraint=eastwest;part=1;fontSize=12;" parent="3t5aelclNXZ5yzzpy6F1-9" vertex="1" connectable="0">
          <mxGeometry width="56" height="30" as="geometry"/>
        </mxCell>
        <mxCell id="3t5aelclNXZ5yzzpy6F1-11" value="Led #3 turned off" style="shape=partialRectangle;top=0;left=0;right=0;bottom=1;align=left;verticalAlign=middle;fillColor=none;spacingLeft=60;spacingRight=4;overflow=hidden;rotatable=0;points=[[0,0.5],[1,0.5]];portConstraint=eastwest;dropTarget=0;fontStyle=0;fontSize=12;" parent="3t5aelclNXZ5yzzpy6F1-0" vertex="1">
          <mxGeometry y="176" width="196" height="30" as="geometry"/>
        </mxCell>
        <mxCell id="3t5aelclNXZ5yzzpy6F1-12" value="D3 OFF" style="shape=partialRectangle;fontStyle=1;top=0;left=0;bottom=0;fillColor=none;align=left;verticalAlign=middle;spacingLeft=4;spacingRight=4;overflow=hidden;rotatable=0;points=[];portConstraint=eastwest;part=1;fontSize=12;" parent="3t5aelclNXZ5yzzpy6F1-11" vertex="1" connectable="0">
          <mxGeometry width="56" height="30" as="geometry"/>
        </mxCell>
        <mxCell id="3t5aelclNXZ5yzzpy6F1-13" value="Led #4 turned off" style="shape=partialRectangle;top=0;left=0;right=0;bottom=1;align=left;verticalAlign=middle;fillColor=none;spacingLeft=60;spacingRight=4;overflow=hidden;rotatable=0;points=[[0,0.5],[1,0.5]];portConstraint=eastwest;dropTarget=0;fontStyle=0;fontSize=12;" parent="3t5aelclNXZ5yzzpy6F1-0" vertex="1">
          <mxGeometry y="206" width="196" height="30" as="geometry"/>
        </mxCell>
        <mxCell id="3t5aelclNXZ5yzzpy6F1-14" value="D4 OFF" style="shape=partialRectangle;fontStyle=1;top=0;left=0;bottom=0;fillColor=none;align=left;verticalAlign=middle;spacingLeft=4;spacingRight=4;overflow=hidden;rotatable=0;points=[];portConstraint=eastwest;part=1;fontSize=12;" parent="3t5aelclNXZ5yzzpy6F1-13" vertex="1" connectable="0">
          <mxGeometry width="56" height="30" as="geometry"/>
        </mxCell>
      </root>
    </mxGraphModel>
  </diagram>
</mxfile>
